<svg width="200" height="200" viewBox="0 0 351 291" fill="none" xmlns="http://www.w3.org/2000/svg">
<rect x="3.5" y="3.5" width="344" height="284" fill="white" stroke="black" stroke-width="7"/>
<path d="M38.0732 162.25C35.6066 162.25 33.3399 161.75 31.2732 160.75C29.2399 159.717 27.4899 158.367 26.0232 156.7C24.5566 155 23.4232 153.067 22.6232 150.9C21.8232 148.733 21.4232 146.517 21.4232 144.25C21.4232 141.883 21.8399 139.617 22.6732 137.45C23.5399 135.283 24.7232 133.367 26.2232 131.7C27.7232 130.033 29.4899 128.717 31.5232 127.75C33.5566 126.75 35.7566 126.25 38.1232 126.25C40.5899 126.25 42.8399 126.783 44.8732 127.85C46.9399 128.883 48.6899 130.25 50.1232 131.95C51.5899 133.65 52.7232 135.583 53.5232 137.75C54.3232 139.883 54.7232 142.067 54.7232 144.3C54.7232 146.667 54.2899 148.933 53.4232 151.1C52.5899 153.267 51.4232 155.183 49.9232 156.85C48.4566 158.483 46.7066 159.8 44.6732 160.8C42.6399 161.767 40.4399 162.25 38.0732 162.25ZM24.9232 144.25C24.9232 146.183 25.2399 148.05 25.8732 149.85C26.5066 151.617 27.4066 153.2 28.5732 154.6C29.7399 155.967 31.1232 157.067 32.7232 157.9C34.3232 158.7 36.1066 159.1 38.0732 159.1C40.0732 159.1 41.8899 158.667 43.5232 157.8C45.1566 156.933 46.5399 155.8 47.6732 154.4C48.8066 153 49.6732 151.417 50.2732 149.65C50.9066 147.883 51.2232 146.083 51.2232 144.25C51.2232 142.317 50.8899 140.467 50.2232 138.7C49.5899 136.9 48.6899 135.317 47.5232 133.95C46.3566 132.583 44.9732 131.5 43.3732 130.7C41.7732 129.867 40.0066 129.45 38.0732 129.45C36.0732 129.45 34.2566 129.883 32.6232 130.75C30.9899 131.583 29.6066 132.7 28.4732 134.1C27.3399 135.5 26.4566 137.083 25.8232 138.85C25.2232 140.617 24.9232 142.417 24.9232 144.25ZM64.8221 133V162H61.3221V126.5H64.0221L87.5221 156.05V126.55H91.0221V162H87.9721L64.8221 133ZM133.439 133.15C132.439 132.017 131.106 131.1 129.439 130.4C127.773 129.7 125.873 129.35 123.739 129.35C120.606 129.35 118.323 129.95 116.889 131.15C115.456 132.317 114.739 133.917 114.739 135.95C114.739 137.017 114.923 137.9 115.289 138.6C115.689 139.267 116.289 139.85 117.089 140.35C117.889 140.85 118.906 141.283 120.139 141.65C121.406 142.017 122.889 142.383 124.589 142.75C126.489 143.15 128.189 143.6 129.689 144.1C131.223 144.6 132.523 145.233 133.589 146C134.656 146.733 135.473 147.633 136.039 148.7C136.606 149.767 136.889 151.1 136.889 152.7C136.889 154.333 136.573 155.75 135.939 156.95C135.306 158.15 134.423 159.15 133.289 159.95C132.156 160.75 130.806 161.35 129.239 161.75C127.673 162.117 125.956 162.3 124.089 162.3C118.589 162.3 113.839 160.583 109.839 157.15L111.589 154.3C112.223 154.967 112.973 155.6 113.839 156.2C114.739 156.8 115.723 157.333 116.789 157.8C117.889 158.233 119.056 158.583 120.289 158.85C121.523 159.083 122.823 159.2 124.189 159.2C127.023 159.2 129.223 158.7 130.789 157.7C132.389 156.667 133.189 155.117 133.189 153.05C133.189 151.95 132.956 151.033 132.489 150.3C132.056 149.533 131.389 148.883 130.489 148.35C129.589 147.783 128.473 147.3 127.139 146.9C125.806 146.5 124.256 146.1 122.489 145.7C120.623 145.267 118.989 144.817 117.589 144.35C116.189 143.883 115.006 143.3 114.039 142.6C113.073 141.9 112.339 141.067 111.839 140.1C111.373 139.1 111.139 137.883 111.139 136.45C111.139 134.817 111.439 133.367 112.039 132.1C112.673 130.8 113.556 129.733 114.689 128.9C115.823 128.033 117.156 127.383 118.689 126.95C120.223 126.483 121.923 126.25 123.789 126.25C126.156 126.25 128.256 126.617 130.089 127.35C131.956 128.05 133.639 129.05 135.139 130.35L133.439 133.15ZM142.16 135.95L143.01 130.65H141.81V125.5H145.16V130.65L143.91 135.95H142.16ZM152.782 126.5L164.382 145.6L176.082 126.5H179.882L166.132 148.8V162H162.632V148.7L148.932 126.5H152.782ZM227.635 162V132.85L214.685 155.4H212.635L199.685 132.85V162H196.185V126.5H199.785L213.635 150.8L227.585 126.5H231.135V162H227.635ZM263.883 158.9V162H240.033V126.5H263.433V129.6H243.533V142.4H260.883V145.35H243.533V158.9H263.883ZM295.702 129.6H283.052V162H279.552V129.6H266.902V126.5H295.702V129.6ZM315.597 151.9C315.597 149.7 315.931 147.95 316.597 146.65C317.297 145.35 318.381 144.267 319.847 143.4C320.514 143 321.247 142.6 322.047 142.2C322.847 141.767 323.597 141.25 324.297 140.65C324.997 140.05 325.581 139.333 326.047 138.5C326.547 137.667 326.797 136.633 326.797 135.4C326.797 134.3 326.597 133.35 326.197 132.55C325.831 131.75 325.331 131.083 324.697 130.55C324.064 129.983 323.331 129.567 322.497 129.3C321.697 129.033 320.864 128.9 319.997 128.9C318.197 128.9 316.581 129.4 315.147 130.4C313.747 131.367 312.681 132.567 311.947 134L309.597 132.5C310.064 131.467 310.664 130.55 311.397 129.75C312.131 128.95 312.947 128.283 313.847 127.75C314.781 127.183 315.764 126.767 316.797 126.5C317.864 126.2 318.947 126.05 320.047 126.05C321.281 126.05 322.481 126.25 323.647 126.65C324.814 127.017 325.847 127.6 326.747 128.4C327.681 129.2 328.414 130.2 328.947 131.4C329.514 132.6 329.797 134 329.797 135.6C329.797 136.933 329.597 138.067 329.197 139C328.831 139.9 328.331 140.683 327.697 141.35C327.064 142.017 326.331 142.6 325.497 143.1C324.697 143.567 323.881 144.033 323.047 144.5C322.447 144.833 321.881 145.183 321.347 145.55C320.814 145.883 320.331 146.333 319.897 146.9C319.464 147.433 319.114 148.1 318.847 148.9C318.614 149.7 318.497 150.7 318.497 151.9H315.597ZM315.647 162V156.65H318.597V162H315.647Z" fill="black"/>
</svg>
