<svg width="120" height="120" viewBox="0 0 351 291" fill="none" xmlns="http://www.w3.org/2000/svg">
<rect x="3.5" y="3.5" width="344" height="284" fill="white" stroke="black" stroke-width="7"/>
<path d="M174.055 92.5H177.005L191.755 128H188.055L183.455 116.9H167.505L162.955 128H159.205L174.055 92.5ZM182.655 114.15L175.505 96.6L168.255 114.15H182.655ZM170.855 82.15H174.405L177.405 86.8L175.205 87.65L170.855 82.15ZM79.7791 187V151.5H94.4791C96.0124 151.5 97.4124 151.833 98.6791 152.5C99.9791 153.133 101.096 153.983 102.029 155.05C102.962 156.083 103.696 157.267 104.229 158.6C104.762 159.933 105.029 161.283 105.029 162.65C105.029 164.117 104.779 165.533 104.279 166.9C103.779 168.233 103.079 169.417 102.179 170.45C101.279 171.483 100.196 172.317 98.9291 172.95C97.6958 173.583 96.3124 173.9 94.7791 173.9H83.2791V187H79.7791ZM83.2791 170.8H94.6291C95.6624 170.8 96.5958 170.583 97.4291 170.15C98.2958 169.683 99.0291 169.083 99.6291 168.35C100.229 167.583 100.696 166.717 101.029 165.75C101.362 164.75 101.529 163.717 101.529 162.65C101.529 161.55 101.329 160.517 100.929 159.55C100.562 158.55 100.046 157.683 99.3791 156.95C98.7458 156.217 97.9791 155.65 97.0791 155.25C96.2124 154.817 95.2958 154.6 94.3291 154.6H83.2791V170.8ZM110.883 187V151.5H125.883C127.416 151.5 128.816 151.833 130.083 152.5C131.383 153.133 132.499 153.983 133.433 155.05C134.366 156.083 135.083 157.267 135.583 158.6C136.116 159.933 136.383 161.283 136.383 162.65C136.383 163.95 136.183 165.2 135.783 166.4C135.416 167.567 134.883 168.633 134.183 169.6C133.516 170.533 132.699 171.333 131.733 172C130.766 172.633 129.683 173.067 128.483 173.3L137.183 187H133.233L124.883 173.9H114.383V187H110.883ZM114.383 170.8H125.983C127.016 170.8 127.949 170.583 128.783 170.15C129.649 169.683 130.383 169.067 130.983 168.3C131.583 167.533 132.049 166.667 132.383 165.7C132.716 164.733 132.883 163.717 132.883 162.65C132.883 161.583 132.683 160.567 132.283 159.6C131.916 158.6 131.399 157.733 130.733 157C130.099 156.267 129.333 155.683 128.433 155.25C127.566 154.817 126.649 154.6 125.683 154.6H114.383V170.8ZM157.849 187.25C155.382 187.25 153.115 186.75 151.049 185.75C149.015 184.717 147.265 183.367 145.799 181.7C144.332 180 143.199 178.067 142.399 175.9C141.599 173.733 141.199 171.517 141.199 169.25C141.199 166.883 141.615 164.617 142.449 162.45C143.315 160.283 144.499 158.367 145.999 156.7C147.499 155.033 149.265 153.717 151.299 152.75C153.332 151.75 155.532 151.25 157.899 151.25C160.365 151.25 162.615 151.783 164.649 152.85C166.715 153.883 168.465 155.25 169.899 156.95C171.365 158.65 172.499 160.583 173.299 162.75C174.099 164.883 174.499 167.067 174.499 169.3C174.499 171.667 174.065 173.933 173.199 176.1C172.365 178.267 171.199 180.183 169.699 181.85C168.232 183.483 166.482 184.8 164.449 185.8C162.415 186.767 160.215 187.25 157.849 187.25ZM144.699 169.25C144.699 171.183 145.015 173.05 145.649 174.85C146.282 176.617 147.182 178.2 148.349 179.6C149.515 180.967 150.899 182.067 152.499 182.9C154.099 183.7 155.882 184.1 157.849 184.1C159.849 184.1 161.665 183.667 163.299 182.8C164.932 181.933 166.315 180.8 167.449 179.4C168.582 178 169.449 176.417 170.049 174.65C170.682 172.883 170.999 171.083 170.999 169.25C170.999 167.317 170.665 165.467 169.999 163.7C169.365 161.9 168.465 160.317 167.299 158.95C166.132 157.583 164.749 156.5 163.149 155.7C161.549 154.867 159.782 154.45 157.849 154.45C155.849 154.45 154.032 154.883 152.399 155.75C150.765 156.583 149.382 157.7 148.249 159.1C147.115 160.5 146.232 162.083 145.599 163.85C144.999 165.617 144.699 167.417 144.699 169.25ZM181.097 187V151.5H195.797C197.331 151.5 198.731 151.833 199.997 152.5C201.297 153.133 202.414 153.983 203.347 155.05C204.281 156.083 205.014 157.267 205.547 158.6C206.081 159.933 206.347 161.283 206.347 162.65C206.347 164.117 206.097 165.533 205.597 166.9C205.097 168.233 204.397 169.417 203.497 170.45C202.597 171.483 201.514 172.317 200.247 172.95C199.014 173.583 197.631 173.9 196.097 173.9H184.597V187H181.097ZM184.597 170.8H195.947C196.981 170.8 197.914 170.583 198.747 170.15C199.614 169.683 200.347 169.083 200.947 168.35C201.547 167.583 202.014 166.717 202.347 165.75C202.681 164.75 202.847 163.717 202.847 162.65C202.847 161.55 202.647 160.517 202.247 159.55C201.881 158.55 201.364 157.683 200.697 156.95C200.064 156.217 199.297 155.65 198.397 155.25C197.531 154.817 196.614 154.6 195.647 154.6H184.597V170.8ZM226.501 187.25C224.034 187.25 221.768 186.75 219.701 185.75C217.668 184.717 215.918 183.367 214.451 181.7C212.984 180 211.851 178.067 211.051 175.9C210.251 173.733 209.851 171.517 209.851 169.25C209.851 166.883 210.268 164.617 211.101 162.45C211.968 160.283 213.151 158.367 214.651 156.7C216.151 155.033 217.918 153.717 219.951 152.75C221.984 151.75 224.184 151.25 226.551 151.25C229.018 151.25 231.268 151.783 233.301 152.85C235.368 153.883 237.118 155.25 238.551 156.95C240.018 158.65 241.151 160.583 241.951 162.75C242.751 164.883 243.151 167.067 243.151 169.3C243.151 171.667 242.718 173.933 241.851 176.1C241.018 178.267 239.851 180.183 238.351 181.85C236.884 183.483 235.134 184.8 233.101 185.8C231.068 186.767 228.868 187.25 226.501 187.25ZM213.351 169.25C213.351 171.183 213.668 173.05 214.301 174.85C214.934 176.617 215.834 178.2 217.001 179.6C218.168 180.967 219.551 182.067 221.151 182.9C222.751 183.7 224.534 184.1 226.501 184.1C228.501 184.1 230.318 183.667 231.951 182.8C233.584 181.933 234.968 180.8 236.101 179.4C237.234 178 238.101 176.417 238.701 174.65C239.334 172.883 239.651 171.083 239.651 169.25C239.651 167.317 239.318 165.467 238.651 163.7C238.018 161.9 237.118 160.317 235.951 158.95C234.784 157.583 233.401 156.5 231.801 155.7C230.201 154.867 228.434 154.45 226.501 154.45C224.501 154.45 222.684 154.883 221.051 155.75C219.418 156.583 218.034 157.7 216.901 159.1C215.768 160.5 214.884 162.083 214.251 163.85C213.651 165.617 213.351 167.417 213.351 169.25ZM270.5 158.15C269.5 157.017 268.166 156.1 266.5 155.4C264.833 154.7 262.933 154.35 260.8 154.35C257.666 154.35 255.383 154.95 253.95 156.15C252.516 157.317 251.8 158.917 251.8 160.95C251.8 162.017 251.983 162.9 252.35 163.6C252.75 164.267 253.35 164.85 254.15 165.35C254.95 165.85 255.966 166.283 257.2 166.65C258.466 167.017 259.95 167.383 261.65 167.75C263.55 168.15 265.25 168.6 266.75 169.1C268.283 169.6 269.583 170.233 270.65 171C271.716 171.733 272.533 172.633 273.1 173.7C273.666 174.767 273.95 176.1 273.95 177.7C273.95 179.333 273.633 180.75 273 181.95C272.366 183.15 271.483 184.15 270.35 184.95C269.216 185.75 267.866 186.35 266.3 186.75C264.733 187.117 263.016 187.3 261.15 187.3C255.65 187.3 250.9 185.583 246.9 182.15L248.65 179.3C249.283 179.967 250.033 180.6 250.9 181.2C251.8 181.8 252.783 182.333 253.85 182.8C254.95 183.233 256.116 183.583 257.35 183.85C258.583 184.083 259.883 184.2 261.25 184.2C264.083 184.2 266.283 183.7 267.85 182.7C269.45 181.667 270.25 180.117 270.25 178.05C270.25 176.95 270.016 176.033 269.55 175.3C269.116 174.533 268.45 173.883 267.55 173.35C266.65 172.783 265.533 172.3 264.2 171.9C262.866 171.5 261.316 171.1 259.55 170.7C257.683 170.267 256.05 169.817 254.65 169.35C253.25 168.883 252.066 168.3 251.1 167.6C250.133 166.9 249.4 166.067 248.9 165.1C248.433 164.1 248.2 162.883 248.2 161.45C248.2 159.817 248.5 158.367 249.1 157.1C249.733 155.8 250.616 154.733 251.75 153.9C252.883 153.033 254.216 152.383 255.75 151.95C257.283 151.483 258.983 151.25 260.85 151.25C263.216 151.25 265.316 151.617 267.15 152.35C269.016 153.05 270.7 154.05 272.2 155.35L270.5 158.15Z" fill="black"/>
</svg>
