<svg width="301" height="60" viewBox="0 0 301 60" fill="none" xmlns="http://www.w3.org/2000/svg">
<rect width="301" height="60" rx="26" fill="#EA441D"/>
<path d="M44.8161 32.7467C44.8161 38.87 39.6209 43.9067 33.1207 43.9067C26.6205 43.9067 21.4253 38.87 21.4253 32.7467C21.4253 26.6233 26.6205 21.5867 33.1207 21.5867C39.6209 21.5867 44.8161 26.6233 44.8161 32.7467Z" stroke="white" stroke-width="2"/>
<path d="M33.1207 17.5466V48.4533" stroke="white" stroke-width="2"/>
<path d="M33.1207 17.5466V48.4533" stroke="white" stroke-width="2"/>
<path d="M33.1207 17.5466V48.4533" stroke="white" stroke-width="2"/>
<line x1="17.7242" y1="32.2533" x2="48.5173" y2="32.2533" stroke="white" stroke-width="2"/>
<path d="M52.3793 33C52.3793 42.8697 43.7103 51 32.8506 51C21.9909 51 13.3218 42.8697 13.3218 33C13.3218 23.1303 21.9909 15 32.8506 15C43.7103 15 52.3793 23.1303 52.3793 33Z" stroke="white" stroke-width="2"/>
<rect x="40.954" y="14" width="14.046" height="8.10667" fill="#EA441D"/>
<rect x="8" y="40.8533" width="14.046" height="8.10667" fill="#EA441D"/>
<path d="M278.816 28.7467C278.816 34.87 273.621 39.9067 267.121 39.9067C260.62 39.9067 255.425 34.87 255.425 28.7467C255.425 22.6233 260.62 17.5867 267.121 17.5867C273.621 17.5867 278.816 22.6233 278.816 28.7467Z" stroke="white" stroke-width="2"/>
<path d="M267.121 13.5466V44.4533" stroke="white" stroke-width="2"/>
<path d="M267.121 13.5466V44.4533" stroke="white" stroke-width="2"/>
<path d="M267.121 13.5466V44.4533" stroke="white" stroke-width="2"/>
<line x1="251.724" y1="28.2533" x2="282.517" y2="28.2533" stroke="white" stroke-width="2"/>
<path d="M286.379 29C286.379 38.8697 277.71 47 266.851 47C255.991 47 247.322 38.8697 247.322 29C247.322 19.1303 255.991 11 266.851 11C277.71 11 286.379 19.1303 286.379 29Z" stroke="white" stroke-width="2"/>
<rect x="274.954" y="10" width="14.046" height="8.10667" fill="#EA441D"/>
<rect x="242" y="36.8533" width="14.046" height="8.10667" fill="#EA441D"/>
<path d="M83.2739 34.884V36H74.6879V23.22H83.1119V24.336H75.9479V28.944H82.1939V30.006H75.9479V34.884H83.2739ZM88.4132 36.18C87.6812 36.18 86.9672 36.06 86.2712 35.82C85.5752 35.58 84.9752 35.232 84.4712 34.776L85.0292 33.948C85.5572 34.38 86.0912 34.704 86.6312 34.92C87.1832 35.136 87.7712 35.244 88.3952 35.244C89.1512 35.244 89.7512 35.094 90.1952 34.794C90.6512 34.482 90.8792 34.044 90.8792 33.48C90.8792 33.216 90.8192 33 90.6992 32.832C90.5792 32.652 90.3992 32.496 90.1592 32.364C89.9312 32.232 89.6372 32.118 89.2772 32.022C88.9292 31.914 88.5212 31.806 88.0532 31.698C87.5132 31.566 87.0452 31.434 86.6492 31.302C86.2532 31.17 85.9232 31.02 85.6592 30.852C85.4072 30.684 85.2152 30.48 85.0832 30.24C84.9632 29.988 84.9032 29.676 84.9032 29.304C84.9032 28.836 84.9932 28.422 85.1732 28.062C85.3652 27.702 85.6172 27.408 85.9292 27.18C86.2532 26.94 86.6252 26.76 87.0452 26.64C87.4772 26.52 87.9332 26.46 88.4132 26.46C89.1332 26.46 89.7872 26.58 90.3752 26.82C90.9632 27.048 91.4372 27.354 91.7972 27.738L91.2032 28.458C90.8552 28.098 90.4292 27.828 89.9252 27.648C89.4332 27.468 88.9172 27.378 88.3772 27.378C88.0532 27.378 87.7532 27.414 87.4772 27.486C87.2012 27.546 86.9552 27.648 86.7392 27.792C86.5352 27.936 86.3732 28.122 86.2532 28.35C86.1332 28.566 86.0732 28.824 86.0732 29.124C86.0732 29.376 86.1152 29.58 86.1992 29.736C86.2832 29.892 86.4212 30.03 86.6132 30.15C86.8052 30.258 87.0452 30.36 87.3332 30.456C87.6332 30.54 87.9932 30.63 88.4132 30.726C89.0132 30.87 89.5412 31.014 89.9972 31.158C90.4532 31.302 90.8312 31.47 91.1312 31.662C91.4432 31.854 91.6772 32.088 91.8332 32.364C91.9892 32.64 92.0672 32.976 92.0672 33.372C92.0672 34.236 91.7372 34.92 91.0772 35.424C90.4172 35.928 89.5292 36.18 88.4132 36.18ZM97.1847 36.18C96.4527 36.18 95.7387 36.06 95.0427 35.82C94.3467 35.58 93.7467 35.232 93.2427 34.776L93.8007 33.948C94.3287 34.38 94.8627 34.704 95.4027 34.92C95.9547 35.136 96.5427 35.244 97.1667 35.244C97.9227 35.244 98.5227 35.094 98.9667 34.794C99.4227 34.482 99.6507 34.044 99.6507 33.48C99.6507 33.216 99.5907 33 99.4707 32.832C99.3507 32.652 99.1707 32.496 98.9307 32.364C98.7027 32.232 98.4087 32.118 98.0487 32.022C97.7007 31.914 97.2927 31.806 96.8247 31.698C96.2847 31.566 95.8167 31.434 95.4207 31.302C95.0247 31.17 94.6947 31.02 94.4307 30.852C94.1787 30.684 93.9867 30.48 93.8547 30.24C93.7347 29.988 93.6747 29.676 93.6747 29.304C93.6747 28.836 93.7647 28.422 93.9447 28.062C94.1367 27.702 94.3887 27.408 94.7007 27.18C95.0247 26.94 95.3967 26.76 95.8167 26.64C96.2487 26.52 96.7047 26.46 97.1847 26.46C97.9047 26.46 98.5587 26.58 99.1467 26.82C99.7347 27.048 100.209 27.354 100.569 27.738L99.9747 28.458C99.6267 28.098 99.2007 27.828 98.6967 27.648C98.2047 27.468 97.6887 27.378 97.1487 27.378C96.8247 27.378 96.5247 27.414 96.2487 27.486C95.9727 27.546 95.7267 27.648 95.5107 27.792C95.3067 27.936 95.1447 28.122 95.0247 28.35C94.9047 28.566 94.8447 28.824 94.8447 29.124C94.8447 29.376 94.8867 29.58 94.9707 29.736C95.0547 29.892 95.1927 30.03 95.3847 30.15C95.5767 30.258 95.8167 30.36 96.1047 30.456C96.4047 30.54 96.7647 30.63 97.1847 30.726C97.7847 30.87 98.3127 31.014 98.7687 31.158C99.2247 31.302 99.6027 31.47 99.9027 31.662C100.215 31.854 100.449 32.088 100.605 32.364C100.761 32.64 100.839 32.976 100.839 33.372C100.839 34.236 100.509 34.92 99.8487 35.424C99.1887 35.928 98.3007 36.18 97.1847 36.18ZM105.2 36.18C104.756 36.18 104.342 36.108 103.958 35.964C103.586 35.808 103.256 35.598 102.968 35.334C102.692 35.07 102.476 34.764 102.32 34.416C102.164 34.056 102.086 33.672 102.086 33.264C102.086 32.856 102.182 32.478 102.374 32.13C102.566 31.782 102.836 31.482 103.184 31.23C103.532 30.978 103.946 30.786 104.426 30.654C104.906 30.51 105.434 30.438 106.01 30.438C106.49 30.438 106.976 30.48 107.468 30.564C107.96 30.648 108.398 30.768 108.782 30.924V30.078C108.782 29.25 108.548 28.596 108.08 28.116C107.612 27.624 106.964 27.378 106.136 27.378C105.656 27.378 105.164 27.474 104.66 27.666C104.156 27.858 103.646 28.134 103.13 28.494L102.698 27.684C103.91 26.868 105.086 26.46 106.226 26.46C107.402 26.46 108.326 26.79 108.998 27.45C109.67 28.11 110.006 29.022 110.006 30.186V34.416C110.006 34.752 110.156 34.92 110.456 34.92V36C110.252 36.036 110.096 36.054 109.988 36.054C109.676 36.054 109.43 35.976 109.25 35.82C109.082 35.664 108.992 35.448 108.98 35.172L108.944 34.434C108.512 34.998 107.966 35.43 107.306 35.73C106.658 36.03 105.956 36.18 105.2 36.18ZM105.488 35.244C106.124 35.244 106.706 35.124 107.234 34.884C107.774 34.644 108.182 34.326 108.458 33.93C108.566 33.822 108.644 33.708 108.692 33.588C108.752 33.456 108.782 33.336 108.782 33.228V31.698C108.374 31.542 107.948 31.422 107.504 31.338C107.072 31.254 106.628 31.212 106.172 31.212C105.308 31.212 104.606 31.392 104.066 31.752C103.526 32.112 103.256 32.586 103.256 33.174C103.256 33.462 103.31 33.732 103.418 33.984C103.538 34.236 103.694 34.458 103.886 34.65C104.09 34.83 104.33 34.974 104.606 35.082C104.882 35.19 105.176 35.244 105.488 35.244ZM112.962 38.88C113.058 38.892 113.148 38.898 113.232 38.898C113.328 38.91 113.418 38.916 113.502 38.916C113.718 38.916 113.886 38.886 114.006 38.826C114.138 38.766 114.264 38.634 114.384 38.43C114.504 38.226 114.636 37.932 114.78 37.548C114.936 37.164 115.152 36.648 115.428 36L111.342 26.622H112.602L116.076 34.866L119.298 26.622H120.468L115.608 38.718C115.476 39.066 115.254 39.366 114.942 39.618C114.642 39.882 114.228 40.014 113.7 40.014C113.58 40.014 113.466 40.008 113.358 39.996C113.25 39.996 113.118 39.984 112.962 39.96V38.88ZM125.912 36.18C125.228 36.18 124.598 36.054 124.022 35.802C123.458 35.538 122.966 35.184 122.546 34.74C122.126 34.284 121.796 33.762 121.556 33.174C121.328 32.586 121.214 31.956 121.214 31.284C121.214 30.624 121.328 30.006 121.556 29.43C121.796 28.842 122.12 28.332 122.528 27.9C122.948 27.456 123.446 27.108 124.022 26.856C124.598 26.592 125.222 26.46 125.894 26.46C126.578 26.46 127.202 26.592 127.766 26.856C128.342 27.108 128.834 27.456 129.242 27.9C129.65 28.344 129.968 28.854 130.196 29.43C130.424 30.006 130.538 30.618 130.538 31.266C130.538 31.362 130.538 31.458 130.538 31.554C130.538 31.65 130.532 31.716 130.52 31.752H122.492C122.528 32.256 122.642 32.724 122.834 33.156C123.038 33.576 123.296 33.942 123.608 34.254C123.92 34.566 124.274 34.812 124.67 34.992C125.078 35.16 125.51 35.244 125.966 35.244C126.266 35.244 126.566 35.202 126.866 35.118C127.166 35.034 127.442 34.92 127.694 34.776C127.946 34.632 128.174 34.458 128.378 34.254C128.582 34.038 128.738 33.804 128.846 33.552L129.908 33.84C129.764 34.188 129.56 34.506 129.296 34.794C129.032 35.07 128.726 35.316 128.378 35.532C128.03 35.736 127.646 35.892 127.226 36C126.806 36.12 126.368 36.18 125.912 36.18ZM129.368 30.816C129.332 30.312 129.212 29.856 129.008 29.448C128.816 29.028 128.564 28.668 128.252 28.368C127.952 28.068 127.598 27.834 127.19 27.666C126.794 27.498 126.368 27.414 125.912 27.414C125.456 27.414 125.024 27.498 124.616 27.666C124.208 27.834 123.848 28.068 123.536 28.368C123.236 28.668 122.99 29.028 122.798 29.448C122.618 29.868 122.51 30.324 122.474 30.816H129.368ZM137.106 27.702C136.278 27.726 135.558 27.954 134.946 28.386C134.334 28.818 133.902 29.412 133.65 30.168V36H132.426V26.622H133.578V28.872C133.926 28.152 134.394 27.588 134.982 27.18C135.57 26.772 136.2 26.568 136.872 26.568C136.968 26.568 137.046 26.574 137.106 26.586V27.702ZM142.939 22.86H144.163V33.876C144.163 34.224 144.259 34.5 144.451 34.704C144.643 34.896 144.913 34.992 145.261 34.992C145.393 34.992 145.549 34.974 145.729 34.938C145.909 34.902 146.077 34.854 146.233 34.794L146.449 35.784C146.221 35.88 145.939 35.958 145.603 36.018C145.279 36.078 144.997 36.108 144.757 36.108C144.193 36.108 143.749 35.952 143.425 35.64C143.101 35.316 142.939 34.866 142.939 34.29V22.86ZM151.839 36.18C151.155 36.18 150.525 36.054 149.949 35.802C149.385 35.538 148.893 35.184 148.473 34.74C148.053 34.284 147.723 33.762 147.483 33.174C147.255 32.586 147.141 31.956 147.141 31.284C147.141 30.624 147.255 30.006 147.483 29.43C147.723 28.842 148.047 28.332 148.455 27.9C148.875 27.456 149.373 27.108 149.949 26.856C150.525 26.592 151.149 26.46 151.821 26.46C152.505 26.46 153.129 26.592 153.693 26.856C154.269 27.108 154.761 27.456 155.169 27.9C155.577 28.344 155.895 28.854 156.123 29.43C156.351 30.006 156.465 30.618 156.465 31.266C156.465 31.362 156.465 31.458 156.465 31.554C156.465 31.65 156.459 31.716 156.447 31.752H148.419C148.455 32.256 148.569 32.724 148.761 33.156C148.965 33.576 149.223 33.942 149.535 34.254C149.847 34.566 150.201 34.812 150.597 34.992C151.005 35.16 151.437 35.244 151.893 35.244C152.193 35.244 152.493 35.202 152.793 35.118C153.093 35.034 153.369 34.92 153.621 34.776C153.873 34.632 154.101 34.458 154.305 34.254C154.509 34.038 154.665 33.804 154.773 33.552L155.835 33.84C155.691 34.188 155.487 34.506 155.223 34.794C154.959 35.07 154.653 35.316 154.305 35.532C153.957 35.736 153.573 35.892 153.153 36C152.733 36.12 152.295 36.18 151.839 36.18ZM155.295 30.816C155.259 30.312 155.139 29.856 154.935 29.448C154.743 29.028 154.491 28.668 154.179 28.368C153.879 28.068 153.525 27.834 153.117 27.666C152.721 27.498 152.295 27.414 151.839 27.414C151.383 27.414 150.951 27.498 150.543 27.666C150.135 27.834 149.775 28.068 149.463 28.368C149.163 28.668 148.917 29.028 148.725 29.448C148.545 29.868 148.437 30.324 148.401 30.816H155.295ZM166.056 36.18C165.324 36.18 164.61 36.06 163.914 35.82C163.218 35.58 162.618 35.232 162.114 34.776L162.672 33.948C163.2 34.38 163.734 34.704 164.274 34.92C164.826 35.136 165.414 35.244 166.038 35.244C166.794 35.244 167.394 35.094 167.838 34.794C168.294 34.482 168.522 34.044 168.522 33.48C168.522 33.216 168.462 33 168.342 32.832C168.222 32.652 168.042 32.496 167.802 32.364C167.574 32.232 167.28 32.118 166.92 32.022C166.572 31.914 166.164 31.806 165.696 31.698C165.156 31.566 164.688 31.434 164.292 31.302C163.896 31.17 163.566 31.02 163.302 30.852C163.05 30.684 162.858 30.48 162.726 30.24C162.606 29.988 162.546 29.676 162.546 29.304C162.546 28.836 162.636 28.422 162.816 28.062C163.008 27.702 163.26 27.408 163.572 27.18C163.896 26.94 164.268 26.76 164.688 26.64C165.12 26.52 165.576 26.46 166.056 26.46C166.776 26.46 167.43 26.58 168.018 26.82C168.606 27.048 169.08 27.354 169.44 27.738L168.846 28.458C168.498 28.098 168.072 27.828 167.568 27.648C167.076 27.468 166.56 27.378 166.02 27.378C165.696 27.378 165.396 27.414 165.12 27.486C164.844 27.546 164.598 27.648 164.382 27.792C164.178 27.936 164.016 28.122 163.896 28.35C163.776 28.566 163.716 28.824 163.716 29.124C163.716 29.376 163.758 29.58 163.842 29.736C163.926 29.892 164.064 30.03 164.256 30.15C164.448 30.258 164.688 30.36 164.976 30.456C165.276 30.54 165.636 30.63 166.056 30.726C166.656 30.87 167.184 31.014 167.64 31.158C168.096 31.302 168.474 31.47 168.774 31.662C169.086 31.854 169.32 32.088 169.476 32.364C169.632 32.64 169.71 32.976 169.71 33.372C169.71 34.236 169.38 34.92 168.72 35.424C168.06 35.928 167.172 36.18 166.056 36.18ZM171.065 31.284C171.065 30.624 171.179 30 171.407 29.412C171.635 28.824 171.953 28.314 172.361 27.882C172.781 27.438 173.279 27.09 173.855 26.838C174.431 26.586 175.067 26.46 175.763 26.46C176.651 26.46 177.425 26.664 178.085 27.072C178.745 27.468 179.243 28.008 179.579 28.692L178.391 29.07C178.127 28.59 177.755 28.218 177.275 27.954C176.807 27.678 176.285 27.54 175.709 27.54C175.229 27.54 174.779 27.636 174.359 27.828C173.951 28.02 173.591 28.284 173.279 28.62C172.979 28.944 172.739 29.334 172.559 29.79C172.391 30.246 172.307 30.744 172.307 31.284C172.307 31.812 172.397 32.31 172.577 32.778C172.757 33.246 173.003 33.654 173.315 34.002C173.627 34.338 173.987 34.608 174.395 34.812C174.815 35.004 175.259 35.1 175.727 35.1C176.027 35.1 176.321 35.058 176.609 34.974C176.909 34.89 177.185 34.776 177.437 34.632C177.689 34.476 177.905 34.302 178.085 34.11C178.265 33.918 178.391 33.714 178.463 33.498L179.669 33.858C179.537 34.194 179.345 34.506 179.093 34.794C178.841 35.07 178.541 35.316 178.193 35.532C177.857 35.736 177.479 35.892 177.059 36C176.651 36.12 176.225 36.18 175.781 36.18C175.097 36.18 174.467 36.054 173.891 35.802C173.315 35.538 172.817 35.184 172.397 34.74C171.977 34.284 171.647 33.762 171.407 33.174C171.179 32.586 171.065 31.956 171.065 31.284ZM183.95 36.18C183.506 36.18 183.092 36.108 182.708 35.964C182.336 35.808 182.006 35.598 181.718 35.334C181.442 35.07 181.226 34.764 181.07 34.416C180.914 34.056 180.836 33.672 180.836 33.264C180.836 32.856 180.932 32.478 181.124 32.13C181.316 31.782 181.586 31.482 181.934 31.23C182.282 30.978 182.696 30.786 183.176 30.654C183.656 30.51 184.184 30.438 184.76 30.438C185.24 30.438 185.726 30.48 186.218 30.564C186.71 30.648 187.148 30.768 187.532 30.924V30.078C187.532 29.25 187.298 28.596 186.83 28.116C186.362 27.624 185.714 27.378 184.886 27.378C184.406 27.378 183.914 27.474 183.41 27.666C182.906 27.858 182.396 28.134 181.88 28.494L181.448 27.684C182.66 26.868 183.836 26.46 184.976 26.46C186.152 26.46 187.076 26.79 187.748 27.45C188.42 28.11 188.756 29.022 188.756 30.186V34.416C188.756 34.752 188.906 34.92 189.206 34.92V36C189.002 36.036 188.846 36.054 188.738 36.054C188.426 36.054 188.18 35.976 188 35.82C187.832 35.664 187.742 35.448 187.73 35.172L187.694 34.434C187.262 34.998 186.716 35.43 186.056 35.73C185.408 36.03 184.706 36.18 183.95 36.18ZM184.238 35.244C184.874 35.244 185.456 35.124 185.984 34.884C186.524 34.644 186.932 34.326 187.208 33.93C187.316 33.822 187.394 33.708 187.442 33.588C187.502 33.456 187.532 33.336 187.532 33.228V31.698C187.124 31.542 186.698 31.422 186.254 31.338C185.822 31.254 185.378 31.212 184.922 31.212C184.058 31.212 183.356 31.392 182.816 31.752C182.276 32.112 182.006 32.586 182.006 33.174C182.006 33.462 182.06 33.732 182.168 33.984C182.288 34.236 182.444 34.458 182.636 34.65C182.84 34.83 183.08 34.974 183.356 35.082C183.632 35.19 183.926 35.244 184.238 35.244ZM199.285 36H198.061V30.762C198.061 29.646 197.893 28.836 197.557 28.332C197.233 27.828 196.729 27.576 196.045 27.576C195.685 27.576 195.325 27.642 194.965 27.774C194.605 27.906 194.269 28.092 193.957 28.332C193.657 28.572 193.387 28.86 193.147 29.196C192.907 29.52 192.733 29.874 192.625 30.258V36H191.401V26.622H192.517V28.746C192.901 28.062 193.447 27.51 194.155 27.09C194.875 26.67 195.655 26.46 196.495 26.46C197.011 26.46 197.449 26.556 197.809 26.748C198.169 26.94 198.457 27.21 198.673 27.558C198.889 27.906 199.045 28.332 199.141 28.836C199.237 29.34 199.285 29.898 199.285 30.51V36ZM209.779 36H208.555V30.762C208.555 29.646 208.387 28.836 208.051 28.332C207.727 27.828 207.223 27.576 206.539 27.576C206.179 27.576 205.819 27.642 205.459 27.774C205.099 27.906 204.763 28.092 204.451 28.332C204.151 28.572 203.881 28.86 203.641 29.196C203.401 29.52 203.227 29.874 203.119 30.258V36H201.895V26.622H203.011V28.746C203.395 28.062 203.941 27.51 204.649 27.09C205.369 26.67 206.149 26.46 206.989 26.46C207.505 26.46 207.943 26.556 208.303 26.748C208.663 26.94 208.951 27.21 209.167 27.558C209.383 27.906 209.539 28.332 209.635 28.836C209.731 29.34 209.779 29.898 209.779 30.51V36ZM216.439 36.18C215.755 36.18 215.125 36.054 214.549 35.802C213.985 35.538 213.493 35.184 213.073 34.74C212.653 34.284 212.323 33.762 212.083 33.174C211.855 32.586 211.741 31.956 211.741 31.284C211.741 30.624 211.855 30.006 212.083 29.43C212.323 28.842 212.647 28.332 213.055 27.9C213.475 27.456 213.973 27.108 214.549 26.856C215.125 26.592 215.749 26.46 216.421 26.46C217.105 26.46 217.729 26.592 218.293 26.856C218.869 27.108 219.361 27.456 219.769 27.9C220.177 28.344 220.495 28.854 220.723 29.43C220.951 30.006 221.065 30.618 221.065 31.266C221.065 31.362 221.065 31.458 221.065 31.554C221.065 31.65 221.059 31.716 221.047 31.752H213.019C213.055 32.256 213.169 32.724 213.361 33.156C213.565 33.576 213.823 33.942 214.135 34.254C214.447 34.566 214.801 34.812 215.197 34.992C215.605 35.16 216.037 35.244 216.493 35.244C216.793 35.244 217.093 35.202 217.393 35.118C217.693 35.034 217.969 34.92 218.221 34.776C218.473 34.632 218.701 34.458 218.905 34.254C219.109 34.038 219.265 33.804 219.373 33.552L220.435 33.84C220.291 34.188 220.087 34.506 219.823 34.794C219.559 35.07 219.253 35.316 218.905 35.532C218.557 35.736 218.173 35.892 217.753 36C217.333 36.12 216.895 36.18 216.439 36.18ZM219.895 30.816C219.859 30.312 219.739 29.856 219.535 29.448C219.343 29.028 219.091 28.668 218.779 28.368C218.479 28.068 218.125 27.834 217.717 27.666C217.321 27.498 216.895 27.414 216.439 27.414C215.983 27.414 215.551 27.498 215.143 27.666C214.735 27.834 214.375 28.068 214.063 28.368C213.763 28.668 213.517 29.028 213.325 29.448C213.145 29.868 213.037 30.324 213.001 30.816H219.895ZM227.634 27.702C226.806 27.726 226.086 27.954 225.474 28.386C224.862 28.818 224.43 29.412 224.178 30.168V36H222.954V26.622H224.106V28.872C224.454 28.152 224.922 27.588 225.51 27.18C226.098 26.772 226.728 26.568 227.4 26.568C227.496 26.568 227.574 26.574 227.634 26.586V27.702Z" fill="white"/>
</svg>
