<svg width="229" height="60" viewBox="0 0 229 60" fill="none" xmlns="http://www.w3.org/2000/svg">
<rect x="7.18919" width="215.384" height="60" rx="26" fill="#FF8412"/>
<path d="M23.1995 32.1C23.3861 32.2333 23.6995 32.38 24.1395 32.54C24.5795 32.7 25.0861 32.78 25.6595 32.78C26.2195 32.78 26.6661 32.6867 26.9995 32.5C27.3328 32.3 27.5861 32 27.7595 31.6C27.9328 31.2 28.0461 30.7067 28.0995 30.12C28.1528 29.52 28.1795 28.82 28.1795 28.02V20.8H30.9395V28.02C30.9395 29.1 30.8795 30.0867 30.7595 30.98C30.6528 31.86 30.4128 32.6133 30.0395 33.24C29.6795 33.8667 29.1528 34.3533 28.4595 34.7C27.7661 35.0467 26.8328 35.22 25.6595 35.22C24.4595 35.22 23.4328 34.9267 22.5795 34.34L23.1995 32.1ZM38.1874 35.2C37.3474 35.2 36.5874 35.06 35.9074 34.78C35.2274 34.4867 34.6474 34.0933 34.1674 33.6C33.6874 33.1067 33.3141 32.5333 33.0474 31.88C32.7941 31.2267 32.6674 30.54 32.6674 29.82C32.6674 29.0733 32.7941 28.3733 33.0474 27.72C33.3008 27.0533 33.6674 26.4733 34.1474 25.98C34.6274 25.4733 35.2074 25.0733 35.8874 24.78C36.5808 24.4867 37.3541 24.34 38.2074 24.34C39.0608 24.34 39.8208 24.4867 40.4874 24.78C41.1674 25.0733 41.7408 25.4667 42.2074 25.96C42.6874 26.4533 43.0474 27.0267 43.2874 27.68C43.5408 28.3333 43.6674 29.0133 43.6674 29.72C43.6674 29.8933 43.6608 30.06 43.6474 30.22C43.6474 30.38 43.6341 30.5133 43.6074 30.62H35.5074C35.5474 31.0333 35.6474 31.4 35.8074 31.72C35.9674 32.04 36.1741 32.3133 36.4274 32.54C36.6808 32.7667 36.9674 32.94 37.2874 33.06C37.6074 33.18 37.9408 33.24 38.2874 33.24C38.8208 33.24 39.3208 33.1133 39.7874 32.86C40.2674 32.5933 40.5941 32.2467 40.7674 31.82L43.0674 32.46C42.6808 33.26 42.0608 33.92 41.2074 34.44C40.3674 34.9467 39.3608 35.2 38.1874 35.2ZM40.9074 28.88C40.8408 28.0933 40.5474 27.4667 40.0274 27C39.5208 26.52 38.9008 26.28 38.1674 26.28C37.8074 26.28 37.4674 26.3467 37.1474 26.48C36.8408 26.6 36.5674 26.7733 36.3274 27C36.0874 27.2267 35.8874 27.5 35.7274 27.82C35.5808 28.14 35.4941 28.4933 35.4674 28.88H40.9074ZM54.0648 35.2C53.1848 35.2 52.3248 35.06 51.4848 34.78C50.6448 34.5 49.9248 34.1 49.3248 33.58L50.3248 31.9C50.9648 32.3533 51.5848 32.7 52.1848 32.94C52.7981 33.1667 53.4048 33.28 54.0048 33.28C54.5381 33.28 54.9581 33.18 55.2648 32.98C55.5714 32.78 55.7248 32.4933 55.7248 32.12C55.7248 31.7467 55.5448 31.4733 55.1848 31.3C54.8248 31.1267 54.2381 30.9267 53.4248 30.7C52.7448 30.5133 52.1648 30.3333 51.6848 30.16C51.2048 29.9867 50.8181 29.7933 50.5248 29.58C50.2314 29.3533 50.0181 29.1 49.8848 28.82C49.7514 28.5267 49.6848 28.18 49.6848 27.78C49.6848 27.2467 49.7848 26.7667 49.9848 26.34C50.1981 25.9133 50.4914 25.5533 50.8648 25.26C51.2381 24.9533 51.6714 24.72 52.1648 24.56C52.6714 24.4 53.2181 24.32 53.8048 24.32C54.5914 24.32 55.3248 24.4333 56.0048 24.66C56.6981 24.8867 57.3314 25.2533 57.9048 25.76L56.8248 27.38C56.2914 26.98 55.7714 26.6867 55.2648 26.5C54.7714 26.3133 54.2781 26.22 53.7848 26.22C53.3314 26.22 52.9514 26.3133 52.6448 26.5C52.3381 26.6867 52.1848 26.9867 52.1848 27.4C52.1848 27.5867 52.2181 27.74 52.2848 27.86C52.3648 27.98 52.4848 28.0867 52.6448 28.18C52.8048 28.2733 53.0114 28.3667 53.2648 28.46C53.5314 28.54 53.8581 28.6267 54.2448 28.72C54.9648 28.9067 55.5781 29.0933 56.0848 29.28C56.6048 29.4667 57.0248 29.68 57.3448 29.92C57.6781 30.16 57.9181 30.44 58.0648 30.76C58.2248 31.0667 58.3048 31.44 58.3048 31.88C58.3048 32.9067 57.9248 33.72 57.1648 34.32C56.4048 34.9067 55.3714 35.2 54.0648 35.2ZM63.2462 35.2C62.1662 35.2 61.3462 34.8533 60.7862 34.16C60.2262 33.4667 59.9462 32.44 59.9462 31.08V24.52H62.6262V30.5C62.6262 32.1133 63.2062 32.92 64.3662 32.92C64.8862 32.92 65.3862 32.7667 65.8662 32.46C66.3595 32.14 66.7595 31.66 67.0662 31.02V24.52H69.7462V31.92C69.7462 32.2 69.7928 32.4 69.8862 32.52C69.9928 32.64 70.1595 32.7067 70.3862 32.72V35C70.1195 35.0533 69.8928 35.0867 69.7062 35.1C69.5328 35.1133 69.3728 35.12 69.2262 35.12C68.7462 35.12 68.3528 35.0133 68.0462 34.8C67.7528 34.5733 67.5795 34.2667 67.5262 33.88L67.4662 33.04C66.9995 33.76 66.3995 34.3 65.6662 34.66C64.9328 35.02 64.1262 35.2 63.2462 35.2ZM72.4095 35V24.52H75.0895V35H72.4095ZM72.4095 23.06V20.4H75.0895V23.06H72.4095ZM81.4671 35.2C80.5871 35.2 79.7271 35.06 78.8871 34.78C78.0471 34.5 77.3271 34.1 76.7271 33.58L77.7271 31.9C78.3671 32.3533 78.9871 32.7 79.5871 32.94C80.2004 33.1667 80.8071 33.28 81.4071 33.28C81.9404 33.28 82.3604 33.18 82.6671 32.98C82.9738 32.78 83.1271 32.4933 83.1271 32.12C83.1271 31.7467 82.9471 31.4733 82.5871 31.3C82.2271 31.1267 81.6404 30.9267 80.8271 30.7C80.1471 30.5133 79.5671 30.3333 79.0871 30.16C78.6071 29.9867 78.2204 29.7933 77.9271 29.58C77.6338 29.3533 77.4204 29.1 77.2871 28.82C77.1538 28.5267 77.0871 28.18 77.0871 27.78C77.0871 27.2467 77.1871 26.7667 77.3871 26.34C77.6004 25.9133 77.8938 25.5533 78.2671 25.26C78.6404 24.9533 79.0738 24.72 79.5671 24.56C80.0738 24.4 80.6204 24.32 81.2071 24.32C81.9938 24.32 82.7271 24.4333 83.4071 24.66C84.1004 24.8867 84.7338 25.2533 85.3071 25.76L84.2271 27.38C83.6938 26.98 83.1738 26.6867 82.6671 26.5C82.1738 26.3133 81.6804 26.22 81.1871 26.22C80.7338 26.22 80.3538 26.3133 80.0471 26.5C79.7404 26.6867 79.5871 26.9867 79.5871 27.4C79.5871 27.5867 79.6204 27.74 79.6871 27.86C79.7671 27.98 79.8871 28.0867 80.0471 28.18C80.2071 28.2733 80.4138 28.3667 80.6671 28.46C80.9338 28.54 81.2604 28.6267 81.6471 28.72C82.3671 28.9067 82.9804 29.0933 83.4871 29.28C84.0071 29.4667 84.4271 29.68 84.7471 29.92C85.0804 30.16 85.3204 30.44 85.4671 30.76C85.6271 31.0667 85.7071 31.44 85.7071 31.88C85.7071 32.9067 85.3271 33.72 84.5671 34.32C83.8071 34.9067 82.7738 35.2 81.4671 35.2ZM95.4532 35.2C94.3732 35.2 93.5532 34.8533 92.9932 34.16C92.4332 33.4667 92.1532 32.44 92.1532 31.08V24.52H94.8332V30.5C94.8332 32.1133 95.4132 32.92 96.5732 32.92C97.0932 32.92 97.5932 32.7667 98.0732 32.46C98.5665 32.14 98.9665 31.66 99.2732 31.02V24.52H101.953V31.92C101.953 32.2 102 32.4 102.093 32.52C102.2 32.64 102.367 32.7067 102.593 32.72V35C102.327 35.0533 102.1 35.0867 101.913 35.1C101.74 35.1133 101.58 35.12 101.433 35.12C100.953 35.12 100.56 35.0133 100.253 34.8C99.9599 34.5733 99.7865 34.2667 99.7332 33.88L99.6732 33.04C99.2065 33.76 98.6065 34.3 97.8732 34.66C97.1399 35.02 96.3332 35.2 95.4532 35.2ZM114.356 35H111.676V29.12C111.676 28.28 111.53 27.6667 111.236 27.28C110.943 26.8933 110.536 26.7 110.016 26.7C109.75 26.7 109.476 26.7533 109.196 26.86C108.916 26.9667 108.65 27.12 108.396 27.32C108.156 27.5067 107.936 27.7333 107.736 28C107.536 28.2667 107.39 28.56 107.296 28.88V35H104.616V24.52H107.036V26.46C107.423 25.7933 107.983 25.2733 108.716 24.9C109.45 24.5267 110.276 24.34 111.196 24.34C111.85 24.34 112.383 24.46 112.796 24.7C113.21 24.94 113.53 25.2533 113.756 25.64C113.983 26.0267 114.136 26.4667 114.216 26.96C114.31 27.4533 114.356 27.9533 114.356 28.46V35ZM121.547 35.2C120.707 35.2 119.947 35.06 119.267 34.78C118.587 34.4867 118.007 34.0933 117.527 33.6C117.047 33.1067 116.673 32.5333 116.407 31.88C116.153 31.2267 116.027 30.54 116.027 29.82C116.027 29.0733 116.153 28.3733 116.407 27.72C116.66 27.0533 117.027 26.4733 117.507 25.98C117.987 25.4733 118.567 25.0733 119.247 24.78C119.94 24.4867 120.713 24.34 121.567 24.34C122.42 24.34 123.18 24.4867 123.847 24.78C124.527 25.0733 125.1 25.4667 125.567 25.96C126.047 26.4533 126.407 27.0267 126.647 27.68C126.9 28.3333 127.027 29.0133 127.027 29.72C127.027 29.8933 127.02 30.06 127.007 30.22C127.007 30.38 126.993 30.5133 126.967 30.62H118.867C118.907 31.0333 119.007 31.4 119.167 31.72C119.327 32.04 119.533 32.3133 119.787 32.54C120.04 32.7667 120.327 32.94 120.647 33.06C120.967 33.18 121.3 33.24 121.647 33.24C122.18 33.24 122.68 33.1133 123.147 32.86C123.627 32.5933 123.953 32.2467 124.127 31.82L126.427 32.46C126.04 33.26 125.42 33.92 124.567 34.44C123.727 34.9467 122.72 35.2 121.547 35.2ZM124.267 28.88C124.2 28.0933 123.907 27.4667 123.387 27C122.88 26.52 122.26 26.28 121.527 26.28C121.167 26.28 120.827 26.3467 120.507 26.48C120.2 26.6 119.927 26.7733 119.687 27C119.447 27.2267 119.247 27.5 119.087 27.82C118.94 28.14 118.853 28.4933 118.827 28.88H124.267ZM149.744 35H147.064V29.12C147.064 28.28 146.917 27.6667 146.624 27.28C146.344 26.8933 145.951 26.7 145.444 26.7C144.911 26.7 144.411 26.9067 143.944 27.32C143.477 27.72 143.144 28.2467 142.944 28.9V35H140.264V29.12C140.264 28.28 140.117 27.6667 139.824 27.28C139.544 26.8933 139.151 26.7 138.644 26.7C138.124 26.7 137.624 26.9 137.144 27.3C136.677 27.7 136.344 28.2267 136.144 28.88V35H133.464V24.52H135.884V26.46C136.271 25.78 136.797 25.26 137.464 24.9C138.144 24.5267 138.917 24.34 139.784 24.34C140.664 24.34 141.344 24.5533 141.824 24.98C142.304 25.4067 142.611 25.9333 142.744 26.56C143.171 25.84 143.711 25.2933 144.364 24.92C145.017 24.5333 145.764 24.34 146.604 24.34C147.244 24.34 147.771 24.46 148.184 24.7C148.597 24.94 148.917 25.2533 149.144 25.64C149.371 26.0267 149.524 26.4667 149.604 26.96C149.697 27.4533 149.744 27.9533 149.744 28.46V35ZM154.937 35.2C154.431 35.2 153.957 35.12 153.517 34.96C153.077 34.7867 152.697 34.5533 152.377 34.26C152.057 33.9533 151.804 33.6 151.617 33.2C151.444 32.8 151.357 32.36 151.357 31.88C151.357 31.3867 151.464 30.9333 151.677 30.52C151.904 30.0933 152.211 29.7333 152.597 29.44C152.997 29.1467 153.471 28.92 154.017 28.76C154.564 28.5867 155.164 28.5 155.817 28.5C156.284 28.5 156.737 28.54 157.177 28.62C157.631 28.7 158.031 28.8133 158.377 28.96V28.36C158.377 27.6667 158.177 27.1333 157.777 26.76C157.391 26.3867 156.811 26.2 156.037 26.2C155.477 26.2 154.931 26.3 154.397 26.5C153.864 26.7 153.317 26.9933 152.757 27.38L151.937 25.68C153.284 24.7867 154.737 24.34 156.297 24.34C157.804 24.34 158.971 24.7133 159.797 25.46C160.637 26.1933 161.057 27.26 161.057 28.66V31.92C161.057 32.2 161.104 32.4 161.197 32.52C161.304 32.64 161.471 32.7067 161.697 32.72V35C161.244 35.0933 160.851 35.14 160.517 35.14C160.011 35.14 159.617 35.0267 159.337 34.8C159.071 34.5733 158.904 34.2733 158.837 33.9L158.777 33.32C158.311 33.9333 157.744 34.4 157.077 34.72C156.411 35.04 155.697 35.2 154.937 35.2ZM155.697 33.24C156.151 33.24 156.577 33.16 156.977 33C157.391 32.84 157.711 32.6267 157.937 32.36C158.231 32.1333 158.377 31.88 158.377 31.6V30.4C158.057 30.28 157.711 30.1867 157.337 30.12C156.964 30.04 156.604 30 156.257 30C155.564 30 154.997 30.16 154.557 30.48C154.117 30.7867 153.897 31.18 153.897 31.66C153.897 32.1133 154.071 32.4933 154.417 32.8C154.764 33.0933 155.191 33.24 155.697 33.24ZM169.802 26.84C168.988 26.8533 168.262 27.0133 167.622 27.32C166.982 27.6133 166.522 28.06 166.242 28.66V35H163.562V24.52H166.022V26.76C166.208 26.4 166.428 26.08 166.682 25.8C166.935 25.5067 167.208 25.2533 167.502 25.04C167.795 24.8267 168.088 24.6667 168.382 24.56C168.688 24.44 168.982 24.38 169.262 24.38C169.408 24.38 169.515 24.38 169.582 24.38C169.662 24.38 169.735 24.3867 169.802 24.4V26.84ZM174.729 35.2C174.062 35.2 173.449 35.06 172.889 34.78C172.329 34.4867 171.842 34.0933 171.429 33.6C171.029 33.1067 170.715 32.5333 170.489 31.88C170.262 31.2133 170.149 30.5 170.149 29.74C170.149 28.98 170.269 28.2733 170.509 27.62C170.762 26.9667 171.109 26.4 171.549 25.92C171.989 25.4267 172.509 25.04 173.109 24.76C173.709 24.48 174.355 24.34 175.049 24.34C175.849 24.34 176.555 24.5267 177.169 24.9C177.782 25.26 178.282 25.74 178.669 26.34V24.52H181.009V36.04C181.009 36.3333 181.062 36.5333 181.169 36.64C181.275 36.76 181.462 36.8267 181.729 36.84V39.12C181.502 39.16 181.255 39.1867 180.989 39.2C180.722 39.2267 180.482 39.24 180.269 39.24C180.002 39.24 179.749 39.1933 179.509 39.1C179.282 39.0067 179.082 38.88 178.909 38.72C178.735 38.56 178.595 38.3667 178.489 38.14C178.382 37.9267 178.329 37.6867 178.329 37.42V33.16C177.942 33.84 177.442 34.3533 176.829 34.7C176.215 35.0333 175.515 35.2 174.729 35.2ZM175.729 32.92C176.302 32.92 176.802 32.76 177.229 32.44C177.655 32.12 178.022 31.7067 178.329 31.2V28.72C178.249 28.4267 178.115 28.1533 177.929 27.9C177.755 27.6467 177.549 27.4267 177.309 27.24C177.069 27.04 176.809 26.8867 176.529 26.78C176.249 26.6733 175.969 26.62 175.689 26.62C175.275 26.62 174.895 26.7067 174.549 26.88C174.215 27.0533 173.922 27.2933 173.669 27.6C173.429 27.8933 173.235 28.2333 173.089 28.62C172.955 29.0067 172.889 29.4067 172.889 29.82C172.889 30.26 172.955 30.6667 173.089 31.04C173.235 31.4133 173.429 31.74 173.669 32.02C173.922 32.3 174.222 32.52 174.569 32.68C174.915 32.84 175.302 32.92 175.729 32.92ZM186.645 35.2C185.565 35.2 184.745 34.8533 184.185 34.16C183.625 33.4667 183.345 32.44 183.345 31.08V24.52H186.025V30.5C186.025 32.1133 186.605 32.92 187.765 32.92C188.285 32.92 188.785 32.7667 189.265 32.46C189.758 32.14 190.158 31.66 190.465 31.02V24.52H193.145V31.92C193.145 32.2 193.191 32.4 193.285 32.52C193.391 32.64 193.558 32.7067 193.785 32.72V35C193.518 35.0533 193.291 35.0867 193.105 35.1C192.931 35.1133 192.771 35.12 192.625 35.12C192.145 35.12 191.751 35.0133 191.445 34.8C191.151 34.5733 190.978 34.2667 190.925 33.88L190.865 33.04C190.398 33.76 189.798 34.3 189.065 34.66C188.331 35.02 187.525 35.2 186.645 35.2ZM200.668 35.2C199.828 35.2 199.068 35.06 198.388 34.78C197.708 34.4867 197.128 34.0933 196.648 33.6C196.168 33.1067 195.795 32.5333 195.528 31.88C195.275 31.2267 195.148 30.54 195.148 29.82C195.148 29.0733 195.275 28.3733 195.528 27.72C195.781 27.0533 196.148 26.4733 196.628 25.98C197.108 25.4733 197.688 25.0733 198.368 24.78C199.061 24.4867 199.835 24.34 200.688 24.34C201.541 24.34 202.301 24.4867 202.968 24.78C203.648 25.0733 204.221 25.4667 204.688 25.96C205.168 26.4533 205.528 27.0267 205.768 27.68C206.021 28.3333 206.148 29.0133 206.148 29.72C206.148 29.8933 206.141 30.06 206.128 30.22C206.128 30.38 206.115 30.5133 206.088 30.62H197.988C198.028 31.0333 198.128 31.4 198.288 31.72C198.448 32.04 198.655 32.3133 198.908 32.54C199.161 32.7667 199.448 32.94 199.768 33.06C200.088 33.18 200.421 33.24 200.768 33.24C201.301 33.24 201.801 33.1133 202.268 32.86C202.748 32.5933 203.075 32.2467 203.248 31.82L205.548 32.46C205.161 33.26 204.541 33.92 203.688 34.44C202.848 34.9467 201.841 35.2 200.668 35.2ZM203.388 28.88C203.321 28.0933 203.028 27.4667 202.508 27C202.001 26.52 201.381 26.28 200.648 26.28C200.288 26.28 199.948 26.3467 199.628 26.48C199.321 26.6 199.048 26.7733 198.808 27C198.568 27.2267 198.368 27.5 198.208 27.82C198.061 28.14 197.975 28.4933 197.948 28.88H203.388Z" fill="white"/>
</svg>
