<svg width="174" height="60" viewBox="0 0 174 60" fill="none" xmlns="http://www.w3.org/2000/svg">
<rect width="174" height="60" rx="26" fill="#4D4948"/>
<path d="M39.6033 34.866C39.1113 35.25 38.5713 35.55 37.9833 35.766C37.4073 35.982 36.7833 36.09 36.1113 36.09C35.2233 36.09 34.4073 35.904 33.6633 35.532C32.9313 35.16 32.3013 34.674 31.7733 34.074C31.2453 33.474 30.8373 32.784 30.5493 32.004C30.2613 31.224 30.1173 30.426 30.1173 29.61C30.1173 28.758 30.2673 27.942 30.5673 27.162C30.8793 26.382 31.3053 25.692 31.8453 25.092C32.3853 24.492 33.0213 24.018 33.7533 23.67C34.4853 23.31 35.2773 23.13 36.1293 23.13C37.0173 23.13 37.8273 23.322 38.5593 23.706C39.3033 24.078 39.9333 24.57 40.4493 25.182C40.9773 25.794 41.3853 26.49 41.6733 27.27C41.9613 28.038 42.1053 28.824 42.1053 29.628C42.1053 30.504 41.9433 31.338 41.6193 32.13C41.3073 32.922 40.8693 33.618 40.3053 34.218L41.8173 36H40.5753L39.6033 34.866ZM36.1113 34.956C36.6513 34.956 37.1493 34.872 37.6053 34.704C38.0613 34.524 38.4813 34.284 38.8653 33.984L37.2633 32.076H38.5053L39.5313 33.3C39.9513 32.796 40.2753 32.226 40.5033 31.59C40.7313 30.942 40.8453 30.282 40.8453 29.61C40.8453 28.914 40.7253 28.248 40.4853 27.612C40.2573 26.964 39.9333 26.394 39.5133 25.902C39.0933 25.41 38.5953 25.014 38.0193 24.714C37.4433 24.414 36.8073 24.264 36.1113 24.264C35.3913 24.264 34.7373 24.42 34.1493 24.732C33.5613 25.032 33.0633 25.434 32.6553 25.938C32.2473 26.442 31.9293 27.018 31.7013 27.666C31.4853 28.302 31.3773 28.95 31.3773 29.61C31.3773 30.306 31.4913 30.978 31.7193 31.626C31.9473 32.262 32.2713 32.832 32.6913 33.336C33.1113 33.828 33.6093 34.224 34.1853 34.524C34.7613 34.812 35.4033 34.956 36.1113 34.956ZM47.1278 36.18C46.1078 36.18 45.3458 35.844 44.8418 35.172C44.3498 34.488 44.1038 33.474 44.1038 32.13V26.622H45.3278V31.914C45.3278 34.038 46.0538 35.1 47.5058 35.1C47.8658 35.1 48.2198 35.04 48.5678 34.92C48.9158 34.8 49.2338 34.626 49.5218 34.398C49.8218 34.17 50.0858 33.9 50.3138 33.588C50.5538 33.276 50.7458 32.922 50.8898 32.526V26.622H52.1138V34.416C52.1138 34.752 52.2578 34.92 52.5458 34.92V36C52.4018 36.024 52.2818 36.036 52.1858 36.036C52.1018 36.036 52.0418 36.036 52.0058 36.036C51.7178 36.024 51.4838 35.922 51.3038 35.73C51.1238 35.538 51.0338 35.28 51.0338 34.956V33.876C50.6258 34.608 50.0678 35.178 49.3598 35.586C48.6638 35.982 47.9198 36.18 47.1278 36.18ZM58.9313 36.18C58.2473 36.18 57.6173 36.054 57.0413 35.802C56.4773 35.538 55.9853 35.184 55.5653 34.74C55.1453 34.284 54.8153 33.762 54.5753 33.174C54.3473 32.586 54.2333 31.956 54.2333 31.284C54.2333 30.624 54.3473 30.006 54.5753 29.43C54.8153 28.842 55.1393 28.332 55.5473 27.9C55.9673 27.456 56.4653 27.108 57.0413 26.856C57.6173 26.592 58.2413 26.46 58.9133 26.46C59.5973 26.46 60.2213 26.592 60.7853 26.856C61.3613 27.108 61.8533 27.456 62.2613 27.9C62.6693 28.344 62.9873 28.854 63.2153 29.43C63.4433 30.006 63.5573 30.618 63.5573 31.266C63.5573 31.362 63.5573 31.458 63.5573 31.554C63.5573 31.65 63.5513 31.716 63.5393 31.752H55.5113C55.5473 32.256 55.6613 32.724 55.8533 33.156C56.0573 33.576 56.3153 33.942 56.6273 34.254C56.9393 34.566 57.2933 34.812 57.6893 34.992C58.0973 35.16 58.5293 35.244 58.9853 35.244C59.2853 35.244 59.5853 35.202 59.8853 35.118C60.1853 35.034 60.4613 34.92 60.7133 34.776C60.9653 34.632 61.1933 34.458 61.3973 34.254C61.6013 34.038 61.7573 33.804 61.8653 33.552L62.9273 33.84C62.7833 34.188 62.5793 34.506 62.3153 34.794C62.0513 35.07 61.7453 35.316 61.3973 35.532C61.0493 35.736 60.6653 35.892 60.2453 36C59.8253 36.12 59.3873 36.18 58.9313 36.18ZM62.3873 30.816C62.3513 30.312 62.2313 29.856 62.0273 29.448C61.8353 29.028 61.5833 28.668 61.2713 28.368C60.9713 28.068 60.6173 27.834 60.2093 27.666C59.8133 27.498 59.3873 27.414 58.9313 27.414C58.4753 27.414 58.0433 27.498 57.6353 27.666C57.2273 27.834 56.8673 28.068 56.5553 28.368C56.2553 28.668 56.0093 29.028 55.8173 29.448C55.6373 29.868 55.5293 30.324 55.4933 30.816H62.3873ZM68.5597 36.18C67.8277 36.18 67.1137 36.06 66.4177 35.82C65.7217 35.58 65.1217 35.232 64.6177 34.776L65.1757 33.948C65.7037 34.38 66.2377 34.704 66.7777 34.92C67.3297 35.136 67.9177 35.244 68.5417 35.244C69.2977 35.244 69.8977 35.094 70.3417 34.794C70.7977 34.482 71.0257 34.044 71.0257 33.48C71.0257 33.216 70.9657 33 70.8457 32.832C70.7257 32.652 70.5457 32.496 70.3057 32.364C70.0777 32.232 69.7837 32.118 69.4237 32.022C69.0757 31.914 68.6677 31.806 68.1997 31.698C67.6597 31.566 67.1917 31.434 66.7957 31.302C66.3997 31.17 66.0697 31.02 65.8057 30.852C65.5537 30.684 65.3617 30.48 65.2297 30.24C65.1097 29.988 65.0497 29.676 65.0497 29.304C65.0497 28.836 65.1397 28.422 65.3197 28.062C65.5117 27.702 65.7637 27.408 66.0757 27.18C66.3997 26.94 66.7717 26.76 67.1917 26.64C67.6237 26.52 68.0797 26.46 68.5597 26.46C69.2797 26.46 69.9337 26.58 70.5217 26.82C71.1097 27.048 71.5837 27.354 71.9437 27.738L71.3497 28.458C71.0017 28.098 70.5757 27.828 70.0717 27.648C69.5797 27.468 69.0637 27.378 68.5237 27.378C68.1997 27.378 67.8997 27.414 67.6237 27.486C67.3477 27.546 67.1017 27.648 66.8857 27.792C66.6817 27.936 66.5197 28.122 66.3997 28.35C66.2797 28.566 66.2197 28.824 66.2197 29.124C66.2197 29.376 66.2617 29.58 66.3457 29.736C66.4297 29.892 66.5677 30.03 66.7597 30.15C66.9517 30.258 67.1917 30.36 67.4797 30.456C67.7797 30.54 68.1397 30.63 68.5597 30.726C69.1597 30.87 69.6877 31.014 70.1437 31.158C70.5997 31.302 70.9777 31.47 71.2777 31.662C71.5897 31.854 71.8237 32.088 71.9797 32.364C72.1357 32.64 72.2137 32.976 72.2137 33.372C72.2137 34.236 71.8837 34.92 71.2237 35.424C70.5637 35.928 69.6757 36.18 68.5597 36.18ZM78.7172 35.55C78.6452 35.586 78.5372 35.634 78.3932 35.694C78.2612 35.754 78.1052 35.814 77.9252 35.874C77.7452 35.934 77.5412 35.988 77.3132 36.036C77.0852 36.084 76.8452 36.108 76.5932 36.108C76.3292 36.108 76.0772 36.072 75.8372 36C75.5972 35.928 75.3872 35.82 75.2072 35.676C75.0272 35.52 74.8832 35.328 74.7752 35.1C74.6672 34.872 74.6132 34.608 74.6132 34.308V27.594H73.3172V26.622H74.6132V23.454H75.8372V26.622H77.9972V27.594H75.8372V33.966C75.8612 34.314 75.9812 34.572 76.1972 34.74C76.4252 34.896 76.6832 34.974 76.9712 34.974C77.3192 34.974 77.6252 34.92 77.8892 34.812C78.1532 34.692 78.3212 34.608 78.3932 34.56L78.7172 35.55ZM80.2465 36V26.622H81.4705V36H80.2465ZM80.2465 24.66V22.86H81.4705V24.66H80.2465ZM88.1624 36.18C87.4784 36.18 86.8544 36.054 86.2904 35.802C85.7264 35.538 85.2344 35.184 84.8144 34.74C84.4064 34.296 84.0884 33.78 83.8604 33.192C83.6324 32.604 83.5184 31.986 83.5184 31.338C83.5184 30.678 83.6324 30.054 83.8604 29.466C84.1004 28.878 84.4244 28.362 84.8324 27.918C85.2524 27.474 85.7444 27.12 86.3084 26.856C86.8724 26.592 87.4904 26.46 88.1624 26.46C88.8344 26.46 89.4524 26.592 90.0164 26.856C90.5924 27.12 91.0844 27.474 91.4924 27.918C91.9124 28.362 92.2364 28.878 92.4644 29.466C92.7044 30.054 92.8244 30.678 92.8244 31.338C92.8244 31.986 92.7104 32.604 92.4824 33.192C92.2544 33.78 91.9304 34.296 91.5104 34.74C91.1024 35.184 90.6104 35.538 90.0344 35.802C89.4704 36.054 88.8464 36.18 88.1624 36.18ZM84.7604 31.356C84.7604 31.884 84.8504 32.376 85.0304 32.832C85.2104 33.276 85.4504 33.672 85.7504 34.02C86.0624 34.356 86.4224 34.62 86.8304 34.812C87.2504 35.004 87.6944 35.1 88.1624 35.1C88.6304 35.1 89.0684 35.004 89.4764 34.812C89.8964 34.608 90.2624 34.338 90.5744 34.002C90.8864 33.654 91.1324 33.252 91.3124 32.796C91.4924 32.34 91.5824 31.848 91.5824 31.32C91.5824 30.804 91.4924 30.318 91.3124 29.862C91.1324 29.394 90.8864 28.992 90.5744 28.656C90.2624 28.308 89.8964 28.038 89.4764 27.846C89.0684 27.642 88.6304 27.54 88.1624 27.54C87.6944 27.54 87.2564 27.642 86.8484 27.846C86.4404 28.038 86.0804 28.308 85.7684 28.656C85.4564 29.004 85.2104 29.412 85.0304 29.88C84.8504 30.336 84.7604 30.828 84.7604 31.356ZM102.755 36H101.531V30.762C101.531 29.646 101.363 28.836 101.027 28.332C100.703 27.828 100.199 27.576 99.5155 27.576C99.1555 27.576 98.7955 27.642 98.4355 27.774C98.0755 27.906 97.7395 28.092 97.4275 28.332C97.1275 28.572 96.8575 28.86 96.6175 29.196C96.3775 29.52 96.2035 29.874 96.0955 30.258V36H94.8715V26.622H95.9875V28.746C96.3715 28.062 96.9175 27.51 97.6255 27.09C98.3455 26.67 99.1255 26.46 99.9655 26.46C100.481 26.46 100.919 26.556 101.279 26.748C101.639 26.94 101.927 27.21 102.143 27.558C102.359 27.906 102.515 28.332 102.611 28.836C102.707 29.34 102.755 29.898 102.755 30.51V36ZM113.25 36H112.026V30.762C112.026 29.646 111.858 28.836 111.522 28.332C111.198 27.828 110.694 27.576 110.01 27.576C109.65 27.576 109.29 27.642 108.93 27.774C108.57 27.906 108.234 28.092 107.922 28.332C107.622 28.572 107.352 28.86 107.112 29.196C106.872 29.52 106.698 29.874 106.59 30.258V36H105.366V26.622H106.482V28.746C106.866 28.062 107.412 27.51 108.12 27.09C108.84 26.67 109.62 26.46 110.46 26.46C110.976 26.46 111.414 26.556 111.774 26.748C112.134 26.94 112.422 27.21 112.638 27.558C112.854 27.906 113.01 28.332 113.106 28.836C113.202 29.34 113.25 29.898 113.25 30.51V36ZM118.218 36.18C117.774 36.18 117.36 36.108 116.976 35.964C116.604 35.808 116.274 35.598 115.986 35.334C115.71 35.07 115.494 34.764 115.338 34.416C115.182 34.056 115.104 33.672 115.104 33.264C115.104 32.856 115.2 32.478 115.392 32.13C115.584 31.782 115.854 31.482 116.202 31.23C116.55 30.978 116.964 30.786 117.444 30.654C117.924 30.51 118.452 30.438 119.028 30.438C119.508 30.438 119.994 30.48 120.486 30.564C120.978 30.648 121.416 30.768 121.8 30.924V30.078C121.8 29.25 121.566 28.596 121.098 28.116C120.63 27.624 119.982 27.378 119.154 27.378C118.674 27.378 118.182 27.474 117.678 27.666C117.174 27.858 116.664 28.134 116.148 28.494L115.716 27.684C116.928 26.868 118.104 26.46 119.244 26.46C120.42 26.46 121.344 26.79 122.016 27.45C122.688 28.11 123.024 29.022 123.024 30.186V34.416C123.024 34.752 123.174 34.92 123.474 34.92V36C123.27 36.036 123.114 36.054 123.006 36.054C122.694 36.054 122.448 35.976 122.268 35.82C122.1 35.664 122.01 35.448 121.998 35.172L121.962 34.434C121.53 34.998 120.984 35.43 120.324 35.73C119.676 36.03 118.974 36.18 118.218 36.18ZM118.506 35.244C119.142 35.244 119.724 35.124 120.252 34.884C120.792 34.644 121.2 34.326 121.476 33.93C121.584 33.822 121.662 33.708 121.71 33.588C121.77 33.456 121.8 33.336 121.8 33.228V31.698C121.392 31.542 120.966 31.422 120.522 31.338C120.09 31.254 119.646 31.212 119.19 31.212C118.326 31.212 117.624 31.392 117.084 31.752C116.544 32.112 116.274 32.586 116.274 33.174C116.274 33.462 116.328 33.732 116.436 33.984C116.556 34.236 116.712 34.458 116.904 34.65C117.108 34.83 117.348 34.974 117.624 35.082C117.9 35.19 118.194 35.244 118.506 35.244ZM125.668 36V26.622H126.892V36H125.668ZM125.668 24.66V22.86H126.892V24.66H125.668ZM134.268 27.702C133.44 27.726 132.72 27.954 132.108 28.386C131.496 28.818 131.064 29.412 130.812 30.168V36H129.588V26.622H130.74V28.872C131.088 28.152 131.556 27.588 132.144 27.18C132.732 26.772 133.362 26.568 134.034 26.568C134.13 26.568 134.208 26.574 134.268 26.586V27.702ZM139.474 36.18C138.79 36.18 138.16 36.054 137.584 35.802C137.02 35.538 136.528 35.184 136.108 34.74C135.688 34.284 135.358 33.762 135.118 33.174C134.89 32.586 134.776 31.956 134.776 31.284C134.776 30.624 134.89 30.006 135.118 29.43C135.358 28.842 135.682 28.332 136.09 27.9C136.51 27.456 137.008 27.108 137.584 26.856C138.16 26.592 138.784 26.46 139.456 26.46C140.14 26.46 140.764 26.592 141.328 26.856C141.904 27.108 142.396 27.456 142.804 27.9C143.212 28.344 143.53 28.854 143.758 29.43C143.986 30.006 144.1 30.618 144.1 31.266C144.1 31.362 144.1 31.458 144.1 31.554C144.1 31.65 144.094 31.716 144.082 31.752H136.054C136.09 32.256 136.204 32.724 136.396 33.156C136.6 33.576 136.858 33.942 137.17 34.254C137.482 34.566 137.836 34.812 138.232 34.992C138.64 35.16 139.072 35.244 139.528 35.244C139.828 35.244 140.128 35.202 140.428 35.118C140.728 35.034 141.004 34.92 141.256 34.776C141.508 34.632 141.736 34.458 141.94 34.254C142.144 34.038 142.3 33.804 142.408 33.552L143.47 33.84C143.326 34.188 143.122 34.506 142.858 34.794C142.594 35.07 142.288 35.316 141.94 35.532C141.592 35.736 141.208 35.892 140.788 36C140.368 36.12 139.93 36.18 139.474 36.18ZM142.93 30.816C142.894 30.312 142.774 29.856 142.57 29.448C142.378 29.028 142.126 28.668 141.814 28.368C141.514 28.068 141.16 27.834 140.752 27.666C140.356 27.498 139.93 27.414 139.474 27.414C139.018 27.414 138.586 27.498 138.178 27.666C137.77 27.834 137.41 28.068 137.098 28.368C136.798 28.668 136.552 29.028 136.36 29.448C136.18 29.868 136.072 30.324 136.036 30.816H142.93Z" fill="white"/>
</svg>
