<svg width="200" height="100" viewBox="0 0 194 93" fill="none" xmlns="http://www.w3.org/2000/svg">
<rect x="13.5" y="13.5" width="167" height="66" stroke="white" stroke-width="3"/>
<path d="M13.5 13.5L1.5 2.5" stroke="white" stroke-width="4"/>
<path d="M180.17 14.052L190.889 1.80051" stroke="white" stroke-width="4"/>
<path d="M3.27791 91.2515L13.9971 79" stroke="white" stroke-width="4"/>
<path d="M192 90L180 79" stroke="white" stroke-width="4"/>
<path d="M41.0341 59V33.44H51.6181C52.7221 33.44 53.7301 33.68 54.6421 34.16C55.5781 34.616 56.3821 35.228 57.0541 35.996C57.7261 36.74 58.2541 37.592 58.6381 38.552C59.0221 39.512 59.2141 40.484 59.2141 41.468C59.2141 42.524 59.0341 43.544 58.6741 44.528C58.3141 45.488 57.8101 46.34 57.1621 47.084C56.5141 47.828 55.7341 48.428 54.8221 48.884C53.9341 49.34 52.9381 49.568 51.8341 49.568H43.5541V59H41.0341ZM43.5541 47.336H51.7261C52.4701 47.336 53.1421 47.18 53.7421 46.868C54.3661 46.532 54.8941 46.1 55.3261 45.572C55.7581 45.02 56.0941 44.396 56.3341 43.7C56.5741 42.98 56.6941 42.236 56.6941 41.468C56.6941 40.676 56.5501 39.932 56.2621 39.236C55.9981 38.516 55.6261 37.892 55.1461 37.364C54.6901 36.836 54.1381 36.428 53.4901 36.14C52.8661 35.828 52.2061 35.672 51.5101 35.672H43.5541V47.336ZM69.7314 33.44H71.8554L82.4754 59H79.8114L76.4994 51.008H65.0154L61.7394 59H59.0394L69.7314 33.44ZM75.9234 49.028L70.7754 36.392L65.5554 49.028H75.9234ZM86.1395 59V33.44H96.9395C98.0435 33.44 99.0515 33.68 99.9635 34.16C100.9 34.616 101.704 35.228 102.376 35.996C103.048 36.74 103.564 37.592 103.924 38.552C104.308 39.512 104.5 40.484 104.5 41.468C104.5 42.404 104.356 43.304 104.068 44.168C103.804 45.008 103.42 45.776 102.916 46.472C102.436 47.144 101.848 47.72 101.152 48.2C100.456 48.656 99.6755 48.968 98.8115 49.136L105.076 59H102.232L96.2195 49.568H88.6595V59H86.1395ZM88.6595 47.336H97.0115C97.7555 47.336 98.4275 47.18 99.0275 46.868C99.6515 46.532 100.18 46.088 100.612 45.536C101.044 44.984 101.38 44.36 101.62 43.664C101.86 42.968 101.98 42.236 101.98 41.468C101.98 40.7 101.836 39.968 101.548 39.272C101.284 38.552 100.912 37.928 100.432 37.4C99.9755 36.872 99.4235 36.452 98.7755 36.14C98.1515 35.828 97.4915 35.672 96.7955 35.672H88.6595V47.336ZM118.835 59V33.44H121.355V59H118.835ZM126.073 46.04C126.073 44.504 126.337 42.98 126.865 41.468C127.417 39.932 128.209 38.564 129.241 37.364C130.273 36.164 131.545 35.192 133.057 34.448C134.569 33.68 136.285 33.296 138.205 33.296C140.485 33.296 142.429 33.812 144.037 34.844C145.669 35.876 146.869 37.22 147.637 38.876L145.657 40.1C145.249 39.26 144.745 38.552 144.145 37.976C143.569 37.4 142.945 36.932 142.273 36.572C141.601 36.212 140.905 35.96 140.185 35.816C139.465 35.648 138.757 35.564 138.061 35.564C136.525 35.564 135.169 35.876 133.993 36.5C132.817 37.124 131.821 37.94 131.005 38.948C130.213 39.956 129.613 41.096 129.205 42.368C128.797 43.616 128.593 44.888 128.593 46.184C128.593 47.6 128.833 48.956 129.313 50.252C129.817 51.548 130.489 52.7 131.329 53.708C132.193 54.692 133.201 55.484 134.353 56.084C135.529 56.66 136.801 56.948 138.169 56.948C138.889 56.948 139.621 56.864 140.365 56.696C141.133 56.504 141.865 56.216 142.561 55.832C143.281 55.424 143.941 54.932 144.541 54.356C145.141 53.756 145.645 53.036 146.053 52.196L148.141 53.276C147.733 54.236 147.157 55.088 146.413 55.832C145.669 56.552 144.841 57.164 143.929 57.668C143.017 58.172 142.045 58.556 141.013 58.82C140.005 59.084 139.009 59.216 138.025 59.216C136.273 59.216 134.665 58.832 133.201 58.064C131.737 57.296 130.477 56.3 129.421 55.076C128.365 53.828 127.537 52.424 126.937 50.864C126.361 49.28 126.073 47.672 126.073 46.04ZM152.444 59V33.44H154.964V59H152.444Z" fill="white"/>
</svg>
