<svg width="120" height="120" viewBox="0 0 351 291" fill="none" xmlns="http://www.w3.org/2000/svg">
<rect x="3.5" y="3.5" width="344" height="284" fill="white" stroke="black" stroke-width="7"/>
<path d="M85.5418 129.85C84.1751 130.917 82.6751 131.75 81.0418 132.35C79.4418 132.95 77.7085 133.25 75.8418 133.25C73.3751 133.25 71.1085 132.733 69.0418 131.7C67.0085 130.667 65.2585 129.317 63.7918 127.65C62.3251 125.983 61.1918 124.067 60.3918 121.9C59.5918 119.733 59.1918 117.517 59.1918 115.25C59.1918 112.883 59.6085 110.617 60.4418 108.45C61.3085 106.283 62.4918 104.367 63.9918 102.7C65.4918 101.033 67.2585 99.7167 69.2918 98.75C71.3251 97.75 73.5251 97.25 75.8918 97.25C78.3585 97.25 80.6085 97.7833 82.6418 98.85C84.7085 99.8833 86.4585 101.25 87.8918 102.95C89.3585 104.65 90.4918 106.583 91.2918 108.75C92.0918 110.883 92.4918 113.067 92.4918 115.3C92.4918 117.733 92.0418 120.05 91.1418 122.25C90.2751 124.45 89.0585 126.383 87.4918 128.05L91.6918 133H88.2418L85.5418 129.85ZM75.8418 130.1C77.3418 130.1 78.7251 129.867 79.9918 129.4C81.2585 128.9 82.4251 128.233 83.4918 127.4L79.0418 122.1H82.4918L85.3418 125.5C86.5085 124.1 87.4085 122.517 88.0418 120.75C88.6751 118.95 88.9918 117.117 88.9918 115.25C88.9918 113.317 88.6585 111.467 87.9918 109.7C87.3585 107.9 86.4585 106.317 85.2918 104.95C84.1251 103.583 82.7418 102.483 81.1418 101.65C79.5418 100.817 77.7751 100.4 75.8418 100.4C73.8418 100.4 72.0251 100.833 70.3918 101.7C68.7585 102.533 67.3751 103.65 66.2418 105.05C65.1085 106.45 64.2251 108.05 63.5918 109.85C62.9918 111.617 62.6918 113.417 62.6918 115.25C62.6918 117.183 63.0085 119.05 63.6418 120.85C64.2751 122.617 65.1751 124.2 66.3418 125.6C67.5085 126.967 68.8918 128.067 70.4918 128.9C72.0918 129.7 73.8751 130.1 75.8418 130.1ZM113.393 130.1C115.626 130.1 117.476 129.683 118.943 128.85C120.443 127.983 121.626 126.867 122.493 125.5C123.393 124.1 124.01 122.517 124.343 120.75C124.71 118.983 124.893 117.2 124.893 115.4V97.5H128.393V115.4C128.393 117.8 128.126 120.083 127.593 122.25C127.06 124.383 126.193 126.267 124.993 127.9C123.826 129.533 122.293 130.833 120.393 131.8C118.493 132.767 116.176 133.25 113.443 133.25C110.643 133.25 108.276 132.75 106.343 131.75C104.443 130.717 102.91 129.367 101.743 127.7C100.576 126.033 99.743 124.133 99.243 122C98.743 119.867 98.493 117.667 98.493 115.4V97.5H101.943V115.4C101.943 117.267 102.126 119.083 102.493 120.85C102.86 122.617 103.476 124.183 104.343 125.55C105.243 126.917 106.426 128.017 107.893 128.85C109.36 129.683 111.193 130.1 113.393 130.1ZM160.587 129.9V133H136.737V97.5H160.137V100.6H140.237V113.4H157.587V116.35H140.237V129.9H160.587ZM167.206 133V97.5H170.706V129.9H191.206V133H167.206ZM196.356 133V97.5H199.856V129.9H220.356V133H196.356ZM249.357 129.9V133H225.507V97.5H248.907V100.6H229.007V113.4H246.357V116.35H229.007V129.9H249.357ZM275.993 104.15C274.993 103.017 273.66 102.1 271.993 101.4C270.326 100.7 268.426 100.35 266.293 100.35C263.16 100.35 260.876 100.95 259.443 102.15C258.01 103.317 257.293 104.917 257.293 106.95C257.293 108.017 257.476 108.9 257.843 109.6C258.243 110.267 258.843 110.85 259.643 111.35C260.443 111.85 261.46 112.283 262.693 112.65C263.96 113.017 265.443 113.383 267.143 113.75C269.043 114.15 270.743 114.6 272.243 115.1C273.776 115.6 275.076 116.233 276.143 117C277.21 117.733 278.026 118.633 278.593 119.7C279.16 120.767 279.443 122.1 279.443 123.7C279.443 125.333 279.126 126.75 278.493 127.95C277.86 129.15 276.976 130.15 275.843 130.95C274.71 131.75 273.36 132.35 271.793 132.75C270.226 133.117 268.51 133.3 266.643 133.3C261.143 133.3 256.393 131.583 252.393 128.15L254.143 125.3C254.776 125.967 255.526 126.6 256.393 127.2C257.293 127.8 258.276 128.333 259.343 128.8C260.443 129.233 261.61 129.583 262.843 129.85C264.076 130.083 265.376 130.2 266.743 130.2C269.576 130.2 271.776 129.7 273.343 128.7C274.943 127.667 275.743 126.117 275.743 124.05C275.743 122.95 275.51 122.033 275.043 121.3C274.61 120.533 273.943 119.883 273.043 119.35C272.143 118.783 271.026 118.3 269.693 117.9C268.36 117.5 266.81 117.1 265.043 116.7C263.176 116.267 261.543 115.817 260.143 115.35C258.743 114.883 257.56 114.3 256.593 113.6C255.626 112.9 254.893 112.067 254.393 111.1C253.926 110.1 253.693 108.883 253.693 107.45C253.693 105.817 253.993 104.367 254.593 103.1C255.226 101.8 256.11 100.733 257.243 99.9C258.376 99.0333 259.71 98.3833 261.243 97.95C262.776 97.4833 264.476 97.25 266.343 97.25C268.71 97.25 270.81 97.6167 272.643 98.35C274.51 99.05 276.193 100.05 277.693 101.35L275.993 104.15ZM87.8846 192V156.5H91.3846V192H87.8846ZM103.787 163V192H100.287V156.5H102.987L126.487 186.05V156.55H129.987V192H126.937L103.787 163ZM138.91 192V156.5H162.21V159.6H142.41V172.65H159.11V175.55H142.41V192H138.91ZM181.872 192.25C179.405 192.25 177.139 191.75 175.072 190.75C173.039 189.717 171.289 188.367 169.822 186.7C168.355 185 167.222 183.067 166.422 180.9C165.622 178.733 165.222 176.517 165.222 174.25C165.222 171.883 165.639 169.617 166.472 167.45C167.339 165.283 168.522 163.367 170.022 161.7C171.522 160.033 173.289 158.717 175.322 157.75C177.355 156.75 179.555 156.25 181.922 156.25C184.389 156.25 186.639 156.783 188.672 157.85C190.739 158.883 192.489 160.25 193.922 161.95C195.389 163.65 196.522 165.583 197.322 167.75C198.122 169.883 198.522 172.067 198.522 174.3C198.522 176.667 198.089 178.933 197.222 181.1C196.389 183.267 195.222 185.183 193.722 186.85C192.255 188.483 190.505 189.8 188.472 190.8C186.439 191.767 184.239 192.25 181.872 192.25ZM168.722 174.25C168.722 176.183 169.039 178.05 169.672 179.85C170.305 181.617 171.205 183.2 172.372 184.6C173.539 185.967 174.922 187.067 176.522 187.9C178.122 188.7 179.905 189.1 181.872 189.1C183.872 189.1 185.689 188.667 187.322 187.8C188.955 186.933 190.339 185.8 191.472 184.4C192.605 183 193.472 181.417 194.072 179.65C194.705 177.883 195.022 176.083 195.022 174.25C195.022 172.317 194.689 170.467 194.022 168.7C193.389 166.9 192.489 165.317 191.322 163.95C190.155 162.583 188.772 161.5 187.172 160.7C185.572 159.867 183.805 159.45 181.872 159.45C179.872 159.45 178.055 159.883 176.422 160.75C174.789 161.583 173.405 162.7 172.272 164.1C171.139 165.5 170.255 167.083 169.622 168.85C169.022 170.617 168.722 172.417 168.722 174.25ZM225.871 163.15C224.871 162.017 223.538 161.1 221.871 160.4C220.204 159.7 218.304 159.35 216.171 159.35C213.038 159.35 210.754 159.95 209.321 161.15C207.888 162.317 207.171 163.917 207.171 165.95C207.171 167.017 207.354 167.9 207.721 168.6C208.121 169.267 208.721 169.85 209.521 170.35C210.321 170.85 211.338 171.283 212.571 171.65C213.838 172.017 215.321 172.383 217.021 172.75C218.921 173.15 220.621 173.6 222.121 174.1C223.654 174.6 224.954 175.233 226.021 176C227.088 176.733 227.904 177.633 228.471 178.7C229.038 179.767 229.321 181.1 229.321 182.7C229.321 184.333 229.004 185.75 228.371 186.95C227.738 188.15 226.854 189.15 225.721 189.95C224.588 190.75 223.238 191.35 221.671 191.75C220.104 192.117 218.388 192.3 216.521 192.3C211.021 192.3 206.271 190.583 202.271 187.15L204.021 184.3C204.654 184.967 205.404 185.6 206.271 186.2C207.171 186.8 208.154 187.333 209.221 187.8C210.321 188.233 211.488 188.583 212.721 188.85C213.954 189.083 215.254 189.2 216.621 189.2C219.454 189.2 221.654 188.7 223.221 187.7C224.821 186.667 225.621 185.117 225.621 183.05C225.621 181.95 225.388 181.033 224.921 180.3C224.488 179.533 223.821 178.883 222.921 178.35C222.021 177.783 220.904 177.3 219.571 176.9C218.238 176.5 216.688 176.1 214.921 175.7C213.054 175.267 211.421 174.817 210.021 174.35C208.621 173.883 207.438 173.3 206.471 172.6C205.504 171.9 204.771 171.067 204.271 170.1C203.804 169.1 203.571 167.883 203.571 166.45C203.571 164.817 203.871 163.367 204.471 162.1C205.104 160.8 205.988 159.733 207.121 158.9C208.254 158.033 209.588 157.383 211.121 156.95C212.654 156.483 214.354 156.25 216.221 156.25C218.588 156.25 220.688 156.617 222.521 157.35C224.388 158.05 226.071 159.05 227.571 160.35L225.871 163.15ZM251.486 181.9C251.486 179.7 251.819 177.95 252.486 176.65C253.186 175.35 254.269 174.267 255.736 173.4C256.403 173 257.136 172.6 257.936 172.2C258.736 171.767 259.486 171.25 260.186 170.65C260.886 170.05 261.469 169.333 261.936 168.5C262.436 167.667 262.686 166.633 262.686 165.4C262.686 164.3 262.486 163.35 262.086 162.55C261.719 161.75 261.219 161.083 260.586 160.55C259.953 159.983 259.219 159.567 258.386 159.3C257.586 159.033 256.753 158.9 255.886 158.9C254.086 158.9 252.469 159.4 251.036 160.4C249.636 161.367 248.569 162.567 247.836 164L245.486 162.5C245.953 161.467 246.553 160.55 247.286 159.75C248.019 158.95 248.836 158.283 249.736 157.75C250.669 157.183 251.653 156.767 252.686 156.5C253.753 156.2 254.836 156.05 255.936 156.05C257.169 156.05 258.369 156.25 259.536 156.65C260.703 157.017 261.736 157.6 262.636 158.4C263.569 159.2 264.303 160.2 264.836 161.4C265.403 162.6 265.686 164 265.686 165.6C265.686 166.933 265.486 168.067 265.086 169C264.719 169.9 264.219 170.683 263.586 171.35C262.953 172.017 262.219 172.6 261.386 173.1C260.586 173.567 259.769 174.033 258.936 174.5C258.336 174.833 257.769 175.183 257.236 175.55C256.703 175.883 256.219 176.333 255.786 176.9C255.353 177.433 255.003 178.1 254.736 178.9C254.503 179.7 254.386 180.7 254.386 181.9H251.486ZM251.536 192V186.65H254.486V192H251.536Z" fill="black"/>
</svg>
