<svg xmlns="http://www.w3.org/2000/svg" viewBox="0 0 846.96 868.61"><title>Fichier 31logo-last-BK</title><g id="Calque_2" data-name="Calque 2"><g id="Calque_1-2" data-name="Calque 1"><path d="M115.32,1H24.49A24.38,24.38,0,0,0,.11,25.4V842.9c0,.38-.11.74-.11,1.12a24.58,24.58,0,0,0,24.49,24.57h90.66l.16,0a24.38,24.38,0,0,0,24.38-24.38V526.83a24.38,24.38,0,0,0-48.76,0V819.45H48.88V451.75h66.26a24.57,24.57,0,1,0,0-49.14H48.88V50.15H90.94V324.34a24.38,24.38,0,0,0,48.76,0V25.4A24.38,24.38,0,0,0,115.32,1Z"/><path d="M375.74,1.67a71.77,71.77,0,0,0-71.56,71.56V797a71.56,71.56,0,1,0,143.12,0V73.23A71.77,71.77,0,0,0,375.74,1.67ZM398.23,797a22.49,22.49,0,1,1-45,0V73.23a22.49,22.49,0,1,1,45,0Z"/><path d="M846.84,479.11v-1.56h-.08A71.73,71.73,0,0,0,775.4,410v0c-12-.25-22.62-11.94-22.62-24V73.23a22.49,22.49,0,0,1,45,0V235.88a24,24,0,0,0-.27,2.65V329a24.57,24.57,0,0,0,49.14,0V319h.2V73.23a71.56,71.56,0,0,0-143.13,0V386.06c0,39.36,32.78,73.1,72.14,73.1v0a22.74,22.74,0,0,1,21.92,21.23V797a22.49,22.49,0,0,1-45,0V619.26a24.21,24.21,0,0,0,.27-2.68V526.13a24.57,24.57,0,1,0-49.14,0v12.39h-.2V797a71.56,71.56,0,0,0,143.13,0V481.58H847C847,480.75,846.87,479.94,846.84,479.11Z"/><path d="M250.08,0H193.65a24,24,0,1,0,0,48h4.71V844.21a24.38,24.38,0,0,0,48.76,0V48h3a24,24,0,1,0,0-48Z"/><path d="M646.48,797.46l.27-.57V400.22h-.61l.26-.68H608.33a26.29,26.29,0,0,0-10.65,50.32v347a22.49,22.49,0,0,1-45,0V73.08a22.49,22.49,0,0,1,45,0V236.83c0,.58-.17,1.12-.17,1.71V329a24.57,24.57,0,0,0,49.14,0V310.7h.1V73.08a71.56,71.56,0,0,0-143.12,0v723.8a71.47,71.47,0,0,0,116.49,55.59l.87-1.82c9.77,7.86,25.08,6.33,35.33-3.92,10.89-10.89,11.94-27.5,2.34-37.09Z"/></g></g></svg>