<svg width="120" height="120" viewBox="0 0 351 291" fill="none" xmlns="http://www.w3.org/2000/svg">
<rect x="3.5" y="3.5" width="344" height="284" fill="white" stroke="black" stroke-width="7"/>
<path d="M146.483 103V73.85L133.533 96.4H131.483L118.533 73.85V103H115.033V67.5H118.633L132.483 91.8L146.433 67.5H149.983V103H146.483ZM158.881 103V67.5H162.381V103H158.881ZM192.033 74.15C191.033 73.0167 189.7 72.1 188.033 71.4C186.366 70.7 184.466 70.35 182.333 70.35C179.2 70.35 176.916 70.95 175.483 72.15C174.05 73.3167 173.333 74.9167 173.333 76.95C173.333 78.0167 173.516 78.9 173.883 79.6C174.283 80.2667 174.883 80.85 175.683 81.35C176.483 81.85 177.5 82.2833 178.733 82.65C180 83.0167 181.483 83.3833 183.183 83.75C185.083 84.15 186.783 84.6 188.283 85.1C189.816 85.6 191.116 86.2333 192.183 87C193.25 87.7333 194.066 88.6333 194.633 89.7C195.2 90.7667 195.483 92.1 195.483 93.7C195.483 95.3333 195.166 96.75 194.533 97.95C193.9 99.15 193.016 100.15 191.883 100.95C190.75 101.75 189.4 102.35 187.833 102.75C186.266 103.117 184.55 103.3 182.683 103.3C177.183 103.3 172.433 101.583 168.433 98.15L170.183 95.3C170.816 95.9667 171.566 96.6 172.433 97.2C173.333 97.8 174.316 98.3333 175.383 98.8C176.483 99.2333 177.65 99.5833 178.883 99.85C180.116 100.083 181.416 100.2 182.783 100.2C185.616 100.2 187.816 99.7 189.383 98.7C190.983 97.6667 191.783 96.1167 191.783 94.05C191.783 92.95 191.55 92.0333 191.083 91.3C190.65 90.5333 189.983 89.8833 189.083 89.35C188.183 88.7833 187.066 88.3 185.733 87.9C184.4 87.5 182.85 87.1 181.083 86.7C179.216 86.2667 177.583 85.8167 176.183 85.35C174.783 84.8833 173.6 84.3 172.633 83.6C171.666 82.9 170.933 82.0667 170.433 81.1C169.966 80.1 169.733 78.8833 169.733 77.45C169.733 75.8167 170.033 74.3667 170.633 73.1C171.266 71.8 172.15 70.7333 173.283 69.9C174.416 69.0333 175.75 68.3833 177.283 67.95C178.816 67.4833 180.516 67.25 182.383 67.25C184.75 67.25 186.85 67.6167 188.683 68.35C190.55 69.05 192.233 70.05 193.733 71.35L192.033 74.15ZM225.504 99.9V103H201.654V67.5H225.054V70.6H205.154V83.4H222.504V86.35H205.154V99.9H225.504ZM162.882 158.9V162H139.032V126.5H162.432V129.6H142.532V142.4H159.882V145.35H142.532V158.9H162.882ZM173.001 133V162H169.501V126.5H172.201L195.701 156.05V126.55H199.201V162H196.151L173.001 133ZM101.523 211.85C101.523 213.183 101.256 214.417 100.723 215.55C100.19 216.65 99.473 217.617 98.573 218.45C97.673 219.25 96.623 219.883 95.423 220.35C94.223 220.783 92.9397 221 91.573 221H74.823V185.5H91.923C93.1564 185.5 94.273 185.767 95.273 186.3C96.273 186.833 97.123 187.533 97.823 188.4C98.523 189.233 99.0564 190.2 99.423 191.3C99.823 192.367 100.023 193.45 100.023 194.55C100.023 196.35 99.573 198 98.673 199.5C97.773 200.967 96.523 202.067 94.923 202.8C96.9564 203.4 98.5564 204.517 99.723 206.15C100.923 207.783 101.523 209.683 101.523 211.85ZM98.023 211.25C98.023 210.383 97.873 209.55 97.573 208.75C97.273 207.917 96.8397 207.2 96.273 206.6C95.7397 205.967 95.0897 205.467 94.323 205.1C93.5897 204.7 92.7897 204.5 91.923 204.5H78.323V217.95H91.573C92.473 217.95 93.3064 217.767 94.073 217.4C94.873 217.033 95.5564 216.55 96.123 215.95C96.723 215.317 97.1897 214.6 97.523 213.8C97.8564 212.967 98.023 212.117 98.023 211.25ZM78.323 188.55V201.65H90.523C91.3897 201.65 92.1897 201.467 92.923 201.1C93.6897 200.733 94.3397 200.25 94.873 199.65C95.4064 199.05 95.823 198.367 96.123 197.6C96.423 196.8 96.573 195.967 96.573 195.1C96.573 194.2 96.423 193.35 96.123 192.55C95.8564 191.75 95.4564 191.067 94.923 190.5C94.423 189.9 93.823 189.433 93.123 189.1C92.423 188.733 91.6564 188.55 90.823 188.55H78.323ZM122.424 221.25C119.957 221.25 117.69 220.75 115.624 219.75C113.59 218.717 111.84 217.367 110.374 215.7C108.907 214 107.774 212.067 106.974 209.9C106.174 207.733 105.774 205.517 105.774 203.25C105.774 200.883 106.19 198.617 107.024 196.45C107.89 194.283 109.074 192.367 110.574 190.7C112.074 189.033 113.84 187.717 115.874 186.75C117.907 185.75 120.107 185.25 122.474 185.25C124.94 185.25 127.19 185.783 129.224 186.85C131.29 187.883 133.04 189.25 134.474 190.95C135.94 192.65 137.074 194.583 137.874 196.75C138.674 198.883 139.074 201.067 139.074 203.3C139.074 205.667 138.64 207.933 137.774 210.1C136.94 212.267 135.774 214.183 134.274 215.85C132.807 217.483 131.057 218.8 129.024 219.8C126.99 220.767 124.79 221.25 122.424 221.25ZM109.274 203.25C109.274 205.183 109.59 207.05 110.224 208.85C110.857 210.617 111.757 212.2 112.924 213.6C114.09 214.967 115.474 216.067 117.074 216.9C118.674 217.7 120.457 218.1 122.424 218.1C124.424 218.1 126.24 217.667 127.874 216.8C129.507 215.933 130.89 214.8 132.024 213.4C133.157 212 134.024 210.417 134.624 208.65C135.257 206.883 135.574 205.083 135.574 203.25C135.574 201.317 135.24 199.467 134.574 197.7C133.94 195.9 133.04 194.317 131.874 192.95C130.707 191.583 129.324 190.5 127.724 189.7C126.124 188.867 124.357 188.45 122.424 188.45C120.424 188.45 118.607 188.883 116.974 189.75C115.34 190.583 113.957 191.7 112.824 193.1C111.69 194.5 110.807 196.083 110.174 197.85C109.574 199.617 109.274 201.417 109.274 203.25ZM160.073 218.1C162.306 218.1 164.156 217.683 165.623 216.85C167.123 215.983 168.306 214.867 169.173 213.5C170.073 212.1 170.689 210.517 171.023 208.75C171.389 206.983 171.573 205.2 171.573 203.4V185.5H175.073V203.4C175.073 205.8 174.806 208.083 174.273 210.25C173.739 212.383 172.873 214.267 171.673 215.9C170.506 217.533 168.973 218.833 167.073 219.8C165.173 220.767 162.856 221.25 160.123 221.25C157.323 221.25 154.956 220.75 153.023 219.75C151.123 218.717 149.589 217.367 148.423 215.7C147.256 214.033 146.423 212.133 145.923 210C145.423 207.867 145.173 205.667 145.173 203.4V185.5H148.623V203.4C148.623 205.267 148.806 207.083 149.173 208.85C149.539 210.617 150.156 212.183 151.023 213.55C151.923 214.917 153.106 216.017 154.573 216.85C156.039 217.683 157.873 218.1 160.073 218.1ZM181.067 203C181.067 200.867 181.433 198.75 182.167 196.65C182.933 194.517 184.033 192.617 185.467 190.95C186.9 189.283 188.667 187.933 190.767 186.9C192.867 185.833 195.25 185.3 197.917 185.3C201.083 185.3 203.783 186.017 206.017 187.45C208.283 188.883 209.95 190.75 211.017 193.05L208.267 194.75C207.7 193.583 207 192.6 206.167 191.8C205.367 191 204.5 190.35 203.567 189.85C202.633 189.35 201.667 189 200.667 188.8C199.667 188.567 198.683 188.45 197.717 188.45C195.583 188.45 193.7 188.883 192.067 189.75C190.433 190.617 189.05 191.75 187.917 193.15C186.817 194.55 185.983 196.133 185.417 197.9C184.85 199.633 184.567 201.4 184.567 203.2C184.567 205.167 184.9 207.05 185.567 208.85C186.267 210.65 187.2 212.25 188.367 213.65C189.567 215.017 190.967 216.117 192.567 216.95C194.2 217.75 195.967 218.15 197.867 218.15C198.867 218.15 199.883 218.033 200.917 217.8C201.983 217.533 203 217.133 203.967 216.6C204.967 216.033 205.883 215.35 206.717 214.55C207.55 213.717 208.25 212.717 208.817 211.55L211.717 213.05C211.15 214.383 210.35 215.567 209.317 216.6C208.283 217.6 207.133 218.45 205.867 219.15C204.6 219.85 203.25 220.383 201.817 220.75C200.417 221.117 199.033 221.3 197.667 221.3C195.233 221.3 193 220.767 190.967 219.7C188.933 218.633 187.183 217.25 185.717 215.55C184.25 213.817 183.1 211.867 182.267 209.7C181.467 207.5 181.067 205.267 181.067 203ZM245.694 185.5V221H242.244V204.4H221.194V221H217.694V185.5H221.194V201.3H242.244V185.5H245.694ZM278.458 217.9V221H254.608V185.5H278.008V188.6H258.108V201.4H275.458V204.35H258.108V217.9H278.458Z" fill="black"/>
</svg>
