<svg width="120" height="120" viewBox="0 0 351 291" fill="none" xmlns="http://www.w3.org/2000/svg">
<rect x="3.5" y="3.5" width="344" height="284" fill="white" stroke="black" stroke-width="7"/>
<path d="M150.14 133V97.5H153.64V129.9H174.14V133H150.14ZM203.141 129.9V133H179.291V97.5H202.691V100.6H182.791V113.4H200.141V116.35H182.791V129.9H203.141ZM87.6404 192V156.5H102.34C103.874 156.5 105.274 156.833 106.54 157.5C107.84 158.133 108.957 158.983 109.89 160.05C110.824 161.083 111.557 162.267 112.09 163.6C112.624 164.933 112.89 166.283 112.89 167.65C112.89 169.117 112.64 170.533 112.14 171.9C111.64 173.233 110.94 174.417 110.04 175.45C109.14 176.483 108.057 177.317 106.79 177.95C105.557 178.583 104.174 178.9 102.64 178.9H91.1404V192H87.6404ZM91.1404 175.8H102.49C103.524 175.8 104.457 175.583 105.29 175.15C106.157 174.683 106.89 174.083 107.49 173.35C108.09 172.583 108.557 171.717 108.89 170.75C109.224 169.75 109.39 168.717 109.39 167.65C109.39 166.55 109.19 165.517 108.79 164.55C108.424 163.55 107.907 162.683 107.24 161.95C106.607 161.217 105.84 160.65 104.94 160.25C104.074 159.817 103.157 159.6 102.19 159.6H91.1404V175.8ZM118.744 192V156.5H133.744C135.277 156.5 136.677 156.833 137.944 157.5C139.244 158.133 140.361 158.983 141.294 160.05C142.227 161.083 142.944 162.267 143.444 163.6C143.977 164.933 144.244 166.283 144.244 167.65C144.244 168.95 144.044 170.2 143.644 171.4C143.277 172.567 142.744 173.633 142.044 174.6C141.377 175.533 140.561 176.333 139.594 177C138.627 177.633 137.544 178.067 136.344 178.3L145.044 192H141.094L132.744 178.9H122.244V192H118.744ZM122.244 175.8H133.844C134.877 175.8 135.811 175.583 136.644 175.15C137.511 174.683 138.244 174.067 138.844 173.3C139.444 172.533 139.911 171.667 140.244 170.7C140.577 169.733 140.744 168.717 140.744 167.65C140.744 166.583 140.544 165.567 140.144 164.6C139.777 163.6 139.261 162.733 138.594 162C137.961 161.267 137.194 160.683 136.294 160.25C135.427 159.817 134.511 159.6 133.544 159.6H122.244V175.8ZM165.71 192.25C163.243 192.25 160.977 191.75 158.91 190.75C156.877 189.717 155.127 188.367 153.66 186.7C152.193 185 151.06 183.067 150.26 180.9C149.46 178.733 149.06 176.517 149.06 174.25C149.06 171.883 149.477 169.617 150.31 167.45C151.177 165.283 152.36 163.367 153.86 161.7C155.36 160.033 157.127 158.717 159.16 157.75C161.193 156.75 163.393 156.25 165.76 156.25C168.227 156.25 170.477 156.783 172.51 157.85C174.577 158.883 176.327 160.25 177.76 161.95C179.227 163.65 180.36 165.583 181.16 167.75C181.96 169.883 182.36 172.067 182.36 174.3C182.36 176.667 181.927 178.933 181.06 181.1C180.227 183.267 179.06 185.183 177.56 186.85C176.093 188.483 174.343 189.8 172.31 190.8C170.277 191.767 168.077 192.25 165.71 192.25ZM152.56 174.25C152.56 176.183 152.877 178.05 153.51 179.85C154.143 181.617 155.043 183.2 156.21 184.6C157.377 185.967 158.76 187.067 160.36 187.9C161.96 188.7 163.743 189.1 165.71 189.1C167.71 189.1 169.527 188.667 171.16 187.8C172.793 186.933 174.177 185.8 175.31 184.4C176.443 183 177.31 181.417 177.91 179.65C178.543 177.883 178.86 176.083 178.86 174.25C178.86 172.317 178.527 170.467 177.86 168.7C177.227 166.9 176.327 165.317 175.16 163.95C173.993 162.583 172.61 161.5 171.01 160.7C169.41 159.867 167.643 159.45 165.71 159.45C163.71 159.45 161.893 159.883 160.26 160.75C158.627 161.583 157.243 162.7 156.11 164.1C154.977 165.5 154.093 167.083 153.46 168.85C152.86 170.617 152.56 172.417 152.56 174.25ZM184.451 187.55C185.184 188.05 186.118 188.483 187.251 188.85C188.418 189.217 189.718 189.4 191.151 189.4C192.951 189.4 194.384 189.083 195.451 188.45C196.551 187.783 197.384 186.817 197.951 185.55C198.518 184.283 198.884 182.733 199.051 180.9C199.218 179.033 199.301 176.917 199.301 174.55V156.5H202.801V174.55C202.801 177.25 202.668 179.717 202.401 181.95C202.168 184.15 201.651 186.033 200.851 187.6C200.051 189.167 198.884 190.383 197.351 191.25C195.818 192.117 193.751 192.55 191.151 192.55C188.151 192.55 185.584 191.817 183.451 190.35L184.451 187.55ZM235.123 188.9V192H211.273V156.5H234.673V159.6H214.773V172.4H232.123V175.35H214.773V188.9H235.123ZM266.942 159.6H254.292V192H250.792V159.6H238.142V156.5H266.942V159.6Z" fill="black"/>
</svg>
