<svg width="200" height="200" viewBox="0 0 351 291" fill="none" xmlns="http://www.w3.org/2000/svg">
<rect x="3.5" y="3.5" width="344" height="284" fill="white" stroke="black" stroke-width="7"/>
<path d="M49.4135 83C49.4135 80.8667 49.7801 78.75 50.5135 76.65C51.2801 74.5167 52.3801 72.6167 53.8135 70.95C55.2468 69.2833 57.0135 67.9333 59.1135 66.9C61.2135 65.8333 63.5968 65.3 66.2635 65.3C69.4301 65.3 72.1301 66.0167 74.3635 67.45C76.6301 68.8833 78.2968 70.75 79.3635 73.05L76.6135 74.75C76.0468 73.5833 75.3468 72.6 74.5135 71.8C73.7135 71 72.8468 70.35 71.9135 69.85C70.9801 69.35 70.0135 69 69.0135 68.8C68.0135 68.5667 67.0301 68.45 66.0635 68.45C63.9301 68.45 62.0468 68.8833 60.4135 69.75C58.7801 70.6167 57.3968 71.75 56.2635 73.15C55.1635 74.55 54.3301 76.1333 53.7635 77.9C53.1968 79.6333 52.9135 81.4 52.9135 83.2C52.9135 85.1667 53.2468 87.05 53.9135 88.85C54.6135 90.65 55.5468 92.25 56.7135 93.65C57.9135 95.0167 59.3135 96.1167 60.9135 96.95C62.5468 97.75 64.3135 98.15 66.2135 98.15C67.2135 98.15 68.2301 98.0333 69.2635 97.8C70.3301 97.5333 71.3468 97.1333 72.3135 96.6C73.3135 96.0333 74.2301 95.35 75.0635 94.55C75.8968 93.7167 76.5968 92.7167 77.1635 91.55L80.0635 93.05C79.4968 94.3833 78.6968 95.5667 77.6635 96.6C76.6301 97.6 75.4801 98.45 74.2135 99.15C72.9468 99.85 71.5968 100.383 70.1635 100.75C68.7635 101.117 67.3801 101.3 66.0135 101.3C63.5801 101.3 61.3468 100.767 59.3135 99.7C57.2801 98.6333 55.5301 97.25 54.0635 95.55C52.5968 93.8167 51.4468 91.8667 50.6135 89.7C49.8135 87.5 49.4135 85.2667 49.4135 83ZM99.999 101.25C97.5324 101.25 95.2657 100.75 93.199 99.75C91.1657 98.7167 89.4157 97.3667 87.949 95.7C86.4824 94 85.349 92.0667 84.549 89.9C83.749 87.7333 83.349 85.5167 83.349 83.25C83.349 80.8833 83.7657 78.6167 84.599 76.45C85.4657 74.2833 86.649 72.3667 88.149 70.7C89.649 69.0333 91.4157 67.7167 93.449 66.75C95.4824 65.75 97.6824 65.25 100.049 65.25C102.516 65.25 104.766 65.7833 106.799 66.85C108.866 67.8833 110.616 69.25 112.049 70.95C113.516 72.65 114.649 74.5833 115.449 76.75C116.249 78.8833 116.649 81.0667 116.649 83.3C116.649 85.6667 116.216 87.9333 115.349 90.1C114.516 92.2667 113.349 94.1833 111.849 95.85C110.382 97.4833 108.632 98.8 106.599 99.8C104.566 100.767 102.366 101.25 99.999 101.25ZM86.849 83.25C86.849 85.1833 87.1657 87.05 87.799 88.85C88.4324 90.6167 89.3324 92.2 90.499 93.6C91.6657 94.9667 93.049 96.0667 94.649 96.9C96.249 97.7 98.0324 98.1 99.999 98.1C101.999 98.1 103.816 97.6667 105.449 96.8C107.082 95.9333 108.466 94.8 109.599 93.4C110.732 92 111.599 90.4167 112.199 88.65C112.832 86.8833 113.149 85.0833 113.149 83.25C113.149 81.3167 112.816 79.4667 112.149 77.7C111.516 75.9 110.616 74.3167 109.449 72.95C108.282 71.5833 106.899 70.5 105.299 69.7C103.699 68.8667 101.932 68.45 99.999 68.45C97.999 68.45 96.1824 68.8833 94.549 69.75C92.9157 70.5833 91.5324 71.7 90.399 73.1C89.2657 74.5 88.3824 76.0833 87.749 77.85C87.149 79.6167 86.849 81.4167 86.849 83.25ZM154.698 101V71.85L141.748 94.4H139.698L126.748 71.85V101H123.248V65.5H126.848L140.698 89.8L154.648 65.5H158.198V101H154.698ZM198.546 101V71.85L185.596 94.4H183.546L170.596 71.85V101H167.096V65.5H170.696L184.546 89.8L198.496 65.5H202.046V101H198.546ZM234.793 97.9V101H210.943V65.5H234.343V68.6H214.443V81.4H231.793V84.35H214.443V97.9H234.793ZM244.912 72V101H241.412V65.5H244.112L267.612 95.05V65.55H271.112V101H268.062L244.912 72ZM305.235 68.6H292.585V101H289.085V68.6H276.435V65.5H305.235V68.6ZM156.984 166.3C157.451 166.533 158.084 166.733 158.884 166.9C159.684 167.1 160.518 167.2 161.384 167.2C163.284 167.2 164.234 166.617 164.234 165.45C164.234 164.783 164.001 164.317 163.534 164.05C163.101 163.783 162.501 163.65 161.734 163.65C161.034 163.65 160.301 163.717 159.534 163.85C158.768 164.017 158.168 164.183 157.734 164.35L159.934 160.25C157.634 160.117 155.518 159.5 153.584 158.4C151.651 157.3 149.984 155.9 148.584 154.2C147.218 152.5 146.151 150.6 145.384 148.5C144.618 146.367 144.234 144.2 144.234 142C144.234 139.867 144.601 137.75 145.334 135.65C146.101 133.517 147.201 131.617 148.634 129.95C150.068 128.283 151.834 126.933 153.934 125.9C156.034 124.833 158.418 124.3 161.084 124.3C164.251 124.3 166.951 125.017 169.184 126.45C171.451 127.883 173.118 129.75 174.184 132.05L171.434 133.75C170.868 132.583 170.168 131.6 169.334 130.8C168.534 130 167.668 129.35 166.734 128.85C165.801 128.35 164.834 128 163.834 127.8C162.834 127.567 161.851 127.45 160.884 127.45C158.751 127.45 156.868 127.883 155.234 128.75C153.601 129.617 152.218 130.75 151.084 132.15C149.984 133.55 149.151 135.133 148.584 136.9C148.018 138.633 147.734 140.4 147.734 142.2C147.734 144.167 148.068 146.05 148.734 147.85C149.434 149.65 150.368 151.25 151.534 152.65C152.734 154.017 154.134 155.117 155.734 155.95C157.368 156.75 159.134 157.15 161.034 157.15C162.034 157.15 163.051 157.033 164.084 156.8C165.151 156.533 166.168 156.133 167.134 155.6C168.134 155.033 169.051 154.35 169.884 153.55C170.718 152.717 171.418 151.717 171.984 150.55L174.884 152.05C174.351 153.283 173.618 154.4 172.684 155.4C171.751 156.367 170.701 157.2 169.534 157.9C168.368 158.567 167.118 159.1 165.784 159.5C164.484 159.9 163.184 160.15 161.884 160.25L160.484 162.55C160.784 162.417 161.101 162.333 161.434 162.3C161.801 162.267 162.118 162.25 162.384 162.25C163.551 162.25 164.468 162.5 165.134 163C165.834 163.533 166.184 164.3 166.184 165.3C166.184 166.433 165.751 167.3 164.884 167.9C164.018 168.5 162.751 168.8 161.084 168.8C160.118 168.8 159.218 168.7 158.384 168.5C157.551 168.333 156.801 168.117 156.134 167.85L156.984 166.3ZM191.377 124.5H194.327L209.077 160H205.377L200.777 148.9H184.827L180.277 160H176.527L191.377 124.5ZM199.977 146.15L192.827 128.6L185.577 146.15H199.977ZM94.0289 218V188.85L81.0789 211.4H79.0289L66.0789 188.85V218H62.5789V182.5H66.1789L80.0289 206.8L93.9789 182.5H97.5289V218H94.0289ZM117.427 182.5H120.377L135.127 218H131.427L126.827 206.9H110.877L106.327 218H102.577L117.427 182.5ZM126.027 204.15L118.877 186.6L111.627 204.15H126.027ZM140.216 218V182.5H155.216C156.749 182.5 158.149 182.833 159.416 183.5C160.716 184.133 161.832 184.983 162.766 186.05C163.699 187.083 164.416 188.267 164.916 189.6C165.449 190.933 165.716 192.283 165.716 193.65C165.716 194.95 165.516 196.2 165.116 197.4C164.749 198.567 164.216 199.633 163.516 200.6C162.849 201.533 162.032 202.333 161.066 203C160.099 203.633 159.016 204.067 157.816 204.3L166.516 218H162.566L154.216 204.9H143.716V218H140.216ZM143.716 201.8H155.316C156.349 201.8 157.282 201.583 158.116 201.15C158.982 200.683 159.716 200.067 160.316 199.3C160.916 198.533 161.382 197.667 161.716 196.7C162.049 195.733 162.216 194.717 162.216 193.65C162.216 192.583 162.016 191.567 161.616 190.6C161.249 189.6 160.732 188.733 160.066 188C159.432 187.267 158.666 186.683 157.766 186.25C156.899 185.817 155.982 185.6 155.016 185.6H143.716V201.8ZM170.532 200C170.532 197.867 170.898 195.75 171.632 193.65C172.398 191.517 173.498 189.617 174.932 187.95C176.365 186.283 178.132 184.933 180.232 183.9C182.332 182.833 184.715 182.3 187.382 182.3C190.548 182.3 193.248 183.017 195.482 184.45C197.748 185.883 199.415 187.75 200.482 190.05L197.732 191.75C197.165 190.583 196.465 189.6 195.632 188.8C194.832 188 193.965 187.35 193.032 186.85C192.098 186.35 191.132 186 190.132 185.8C189.132 185.567 188.148 185.45 187.182 185.45C185.048 185.45 183.165 185.883 181.532 186.75C179.898 187.617 178.515 188.75 177.382 190.15C176.282 191.55 175.448 193.133 174.882 194.9C174.315 196.633 174.032 198.4 174.032 200.2C174.032 202.167 174.365 204.05 175.032 205.85C175.732 207.65 176.665 209.25 177.832 210.65C179.032 212.017 180.432 213.117 182.032 213.95C183.665 214.75 185.432 215.15 187.332 215.15C188.332 215.15 189.348 215.033 190.382 214.8C191.448 214.533 192.465 214.133 193.432 213.6C194.432 213.033 195.348 212.35 196.182 211.55C197.015 210.717 197.715 209.717 198.282 208.55L201.182 210.05C200.615 211.383 199.815 212.567 198.782 213.6C197.748 214.6 196.598 215.45 195.332 216.15C194.065 216.85 192.715 217.383 191.282 217.75C189.882 218.117 188.498 218.3 187.132 218.3C184.698 218.3 182.465 217.767 180.432 216.7C178.398 215.633 176.648 214.25 175.182 212.55C173.715 210.817 172.565 208.867 171.732 206.7C170.932 204.5 170.532 202.267 170.532 200ZM235.159 182.5V218H231.709V201.4H210.659V218H207.159V182.5H210.659V198.3H231.709V182.5H235.159ZM267.923 214.9V218H244.073V182.5H267.473V185.6H247.573V198.4H264.923V201.35H247.573V214.9H267.923ZM277.792 207.9C277.792 205.7 278.125 203.95 278.792 202.65C279.492 201.35 280.575 200.267 282.042 199.4C282.708 199 283.442 198.6 284.242 198.2C285.042 197.767 285.792 197.25 286.492 196.65C287.192 196.05 287.775 195.333 288.242 194.5C288.742 193.667 288.992 192.633 288.992 191.4C288.992 190.3 288.792 189.35 288.392 188.55C288.025 187.75 287.525 187.083 286.892 186.55C286.258 185.983 285.525 185.567 284.692 185.3C283.892 185.033 283.058 184.9 282.192 184.9C280.392 184.9 278.775 185.4 277.342 186.4C275.942 187.367 274.875 188.567 274.142 190L271.792 188.5C272.258 187.467 272.858 186.55 273.592 185.75C274.325 184.95 275.142 184.283 276.042 183.75C276.975 183.183 277.958 182.767 278.992 182.5C280.058 182.2 281.142 182.05 282.242 182.05C283.475 182.05 284.675 182.25 285.842 182.65C287.008 183.017 288.042 183.6 288.942 184.4C289.875 185.2 290.608 186.2 291.142 187.4C291.708 188.6 291.992 190 291.992 191.6C291.992 192.933 291.792 194.067 291.392 195C291.025 195.9 290.525 196.683 289.892 197.35C289.258 198.017 288.525 198.6 287.692 199.1C286.892 199.567 286.075 200.033 285.242 200.5C284.642 200.833 284.075 201.183 283.542 201.55C283.008 201.883 282.525 202.333 282.092 202.9C281.658 203.433 281.308 204.1 281.042 204.9C280.808 205.7 280.692 206.7 280.692 207.9H277.792ZM277.842 218V212.65H280.792V218H277.842Z" fill="black"/>
</svg>
