<svg width="301" height="60" viewBox="0 0 301 60" fill="none" xmlns="http://www.w3.org/2000/svg">
<rect width="301" height="60" rx="26" fill="#EA441D"/>
<path d="M44.8161 32.7467C44.8161 38.87 39.6209 43.9067 33.1207 43.9067C26.6205 43.9067 21.4253 38.87 21.4253 32.7467C21.4253 26.6233 26.6205 21.5867 33.1207 21.5867C39.6209 21.5867 44.8161 26.6233 44.8161 32.7467Z" stroke="white" stroke-width="2"/>
<path d="M33.1207 17.5466V48.4533" stroke="white" stroke-width="2"/>
<path d="M33.1207 17.5466V48.4533" stroke="white" stroke-width="2"/>
<path d="M33.1207 17.5466V48.4533" stroke="white" stroke-width="2"/>
<line x1="17.7242" y1="32.2533" x2="48.5173" y2="32.2533" stroke="white" stroke-width="2"/>
<path d="M52.3793 33C52.3793 42.8697 43.7103 51 32.8506 51C21.9909 51 13.3218 42.8697 13.3218 33C13.3218 23.1303 21.9909 15 32.8506 15C43.7103 15 52.3793 23.1303 52.3793 33Z" stroke="white" stroke-width="2"/>
<rect x="40.954" y="14" width="14.046" height="8.10667" fill="#EA441D"/>
<rect x="8" y="40.8533" width="14.046" height="8.10667" fill="#EA441D"/>
<path d="M278.816 28.7467C278.816 34.87 273.621 39.9067 267.121 39.9067C260.62 39.9067 255.425 34.87 255.425 28.7467C255.425 22.6233 260.62 17.5867 267.121 17.5867C273.621 17.5867 278.816 22.6233 278.816 28.7467Z" stroke="white" stroke-width="2"/>
<path d="M267.121 13.5466V44.4533" stroke="white" stroke-width="2"/>
<path d="M267.121 13.5466V44.4533" stroke="white" stroke-width="2"/>
<path d="M267.121 13.5466V44.4533" stroke="white" stroke-width="2"/>
<line x1="251.724" y1="28.2534" x2="282.517" y2="28.2534" stroke="white" stroke-width="2"/>
<path d="M286.379 29C286.379 38.8697 277.71 47 266.851 47C255.991 47 247.322 38.8697 247.322 29C247.322 19.1303 255.991 11 266.851 11C277.71 11 286.379 19.1303 286.379 29Z" stroke="white" stroke-width="2"/>
<rect x="274.954" y="10" width="14.046" height="8.10667" fill="#EA441D"/>
<rect x="242" y="36.8533" width="14.046" height="8.10667" fill="#EA441D"/>
<path d="M72.6584 35.58V38H62.7984V23.8H72.4784V26.22H65.5584V29.64H71.5384V31.88H65.5584V35.58H72.6584ZM78.3929 38.2C77.5129 38.2 76.6529 38.06 75.8129 37.78C74.9729 37.5 74.2529 37.1 73.6529 36.58L74.6529 34.9C75.2929 35.3533 75.9129 35.7 76.5129 35.94C77.1262 36.1667 77.7329 36.28 78.3329 36.28C78.8662 36.28 79.2862 36.18 79.5929 35.98C79.8996 35.78 80.0529 35.4933 80.0529 35.12C80.0529 34.7467 79.8729 34.4733 79.5129 34.3C79.1529 34.1267 78.5662 33.9267 77.7529 33.7C77.0729 33.5133 76.4929 33.3333 76.0129 33.16C75.5329 32.9867 75.1462 32.7933 74.8529 32.58C74.5596 32.3533 74.3462 32.1 74.2129 31.82C74.0796 31.5267 74.0129 31.18 74.0129 30.78C74.0129 30.2467 74.1129 29.7667 74.3129 29.34C74.5262 28.9133 74.8196 28.5533 75.1929 28.26C75.5662 27.9533 75.9996 27.72 76.4929 27.56C76.9996 27.4 77.5462 27.32 78.1329 27.32C78.9196 27.32 79.6529 27.4333 80.3329 27.66C81.0262 27.8867 81.6596 28.2533 82.2329 28.76L81.1529 30.38C80.6196 29.98 80.0996 29.6867 79.5929 29.5C79.0996 29.3133 78.6062 29.22 78.1129 29.22C77.6596 29.22 77.2796 29.3133 76.9729 29.5C76.6662 29.6867 76.5129 29.9867 76.5129 30.4C76.5129 30.5867 76.5462 30.74 76.6129 30.86C76.6929 30.98 76.8129 31.0867 76.9729 31.18C77.1329 31.2733 77.3396 31.3667 77.5929 31.46C77.8596 31.54 78.1862 31.6267 78.5729 31.72C79.2929 31.9067 79.9062 32.0933 80.4129 32.28C80.9329 32.4667 81.3529 32.68 81.6729 32.92C82.0062 33.16 82.2462 33.44 82.3929 33.76C82.5529 34.0667 82.6329 34.44 82.6329 34.88C82.6329 35.9067 82.2529 36.72 81.4929 37.32C80.7329 37.9067 79.6996 38.2 78.3929 38.2ZM88.3343 38.2C87.4543 38.2 86.5943 38.06 85.7543 37.78C84.9143 37.5 84.1943 37.1 83.5943 36.58L84.5943 34.9C85.2343 35.3533 85.8543 35.7 86.4543 35.94C87.0676 36.1667 87.6743 36.28 88.2743 36.28C88.8076 36.28 89.2276 36.18 89.5343 35.98C89.841 35.78 89.9943 35.4933 89.9943 35.12C89.9943 34.7467 89.8143 34.4733 89.4543 34.3C89.0943 34.1267 88.5076 33.9267 87.6943 33.7C87.0143 33.5133 86.4343 33.3333 85.9543 33.16C85.4743 32.9867 85.0876 32.7933 84.7943 32.58C84.501 32.3533 84.2876 32.1 84.1543 31.82C84.021 31.5267 83.9543 31.18 83.9543 30.78C83.9543 30.2467 84.0543 29.7667 84.2543 29.34C84.4676 28.9133 84.761 28.5533 85.1343 28.26C85.5076 27.9533 85.941 27.72 86.4343 27.56C86.941 27.4 87.4876 27.32 88.0743 27.32C88.861 27.32 89.5943 27.4333 90.2743 27.66C90.9676 27.8867 91.601 28.2533 92.1743 28.76L91.0943 30.38C90.561 29.98 90.041 29.6867 89.5343 29.5C89.041 29.3133 88.5476 29.22 88.0543 29.22C87.601 29.22 87.221 29.3133 86.9143 29.5C86.6076 29.6867 86.4543 29.9867 86.4543 30.4C86.4543 30.5867 86.4876 30.74 86.5543 30.86C86.6343 30.98 86.7543 31.0867 86.9143 31.18C87.0743 31.2733 87.281 31.3667 87.5343 31.46C87.801 31.54 88.1276 31.6267 88.5143 31.72C89.2343 31.9067 89.8476 32.0933 90.3543 32.28C90.8743 32.4667 91.2943 32.68 91.6143 32.92C91.9476 33.16 92.1876 33.44 92.3343 33.76C92.4943 34.0667 92.5743 34.44 92.5743 34.88C92.5743 35.9067 92.1943 36.72 91.4343 37.32C90.6743 37.9067 89.641 38.2 88.3343 38.2ZM97.1757 38.2C96.669 38.2 96.1957 38.12 95.7557 37.96C95.3157 37.7867 94.9357 37.5533 94.6157 37.26C94.2957 36.9533 94.0424 36.6 93.8557 36.2C93.6824 35.8 93.5957 35.36 93.5957 34.88C93.5957 34.3867 93.7024 33.9333 93.9157 33.52C94.1424 33.0933 94.449 32.7333 94.8357 32.44C95.2357 32.1467 95.709 31.92 96.2557 31.76C96.8024 31.5867 97.4024 31.5 98.0557 31.5C98.5224 31.5 98.9757 31.54 99.4157 31.62C99.869 31.7 100.269 31.8133 100.616 31.96V31.36C100.616 30.6667 100.416 30.1333 100.016 29.76C99.629 29.3867 99.049 29.2 98.2757 29.2C97.7157 29.2 97.169 29.3 96.6357 29.5C96.1024 29.7 95.5557 29.9933 94.9957 30.38L94.1757 28.68C95.5224 27.7867 96.9757 27.34 98.5357 27.34C100.042 27.34 101.209 27.7133 102.036 28.46C102.876 29.1933 103.296 30.26 103.296 31.66V34.92C103.296 35.2 103.342 35.4 103.436 35.52C103.542 35.64 103.709 35.7067 103.936 35.72V38C103.482 38.0933 103.089 38.14 102.756 38.14C102.249 38.14 101.856 38.0267 101.576 37.8C101.309 37.5733 101.142 37.2733 101.076 36.9L101.016 36.32C100.549 36.9333 99.9824 37.4 99.3157 37.72C98.649 38.04 97.9357 38.2 97.1757 38.2ZM97.9357 36.24C98.389 36.24 98.8157 36.16 99.2157 36C99.629 35.84 99.949 35.6267 100.176 35.36C100.469 35.1333 100.616 34.88 100.616 34.6V33.4C100.296 33.28 99.949 33.1867 99.5757 33.12C99.2024 33.04 98.8424 33 98.4957 33C97.8024 33 97.2357 33.16 96.7957 33.48C96.3557 33.7867 96.1357 34.18 96.1357 34.66C96.1357 35.1133 96.309 35.4933 96.6557 35.8C97.0024 36.0933 97.429 36.24 97.9357 36.24ZM105.766 40.04C105.993 40.1067 106.213 40.1533 106.426 40.18C106.64 40.22 106.82 40.24 106.966 40.24C107.14 40.24 107.3 40.2067 107.446 40.14C107.593 40.0733 107.726 39.9533 107.846 39.78C107.966 39.62 108.086 39.3933 108.206 39.1C108.326 38.8067 108.453 38.44 108.586 38L104.446 27.52H107.206L110.046 35.68L112.566 27.52H115.086L110.686 40.08C110.433 40.8133 110 41.4133 109.386 41.88C108.773 42.3467 108.013 42.58 107.106 42.58C106.893 42.58 106.673 42.56 106.446 42.52C106.233 42.4933 106.006 42.44 105.766 42.36V40.04ZM121.051 38.2C120.211 38.2 119.451 38.06 118.771 37.78C118.091 37.4867 117.511 37.0933 117.031 36.6C116.551 36.1067 116.177 35.5333 115.911 34.88C115.657 34.2267 115.531 33.54 115.531 32.82C115.531 32.0733 115.657 31.3733 115.911 30.72C116.164 30.0533 116.531 29.4733 117.011 28.98C117.491 28.4733 118.071 28.0733 118.751 27.78C119.444 27.4867 120.217 27.34 121.071 27.34C121.924 27.34 122.684 27.4867 123.351 27.78C124.031 28.0733 124.604 28.4667 125.071 28.96C125.551 29.4533 125.911 30.0267 126.151 30.68C126.404 31.3333 126.531 32.0133 126.531 32.72C126.531 32.8933 126.524 33.06 126.511 33.22C126.511 33.38 126.497 33.5133 126.471 33.62H118.371C118.411 34.0333 118.511 34.4 118.671 34.72C118.831 35.04 119.037 35.3133 119.291 35.54C119.544 35.7667 119.831 35.94 120.151 36.06C120.471 36.18 120.804 36.24 121.151 36.24C121.684 36.24 122.184 36.1133 122.651 35.86C123.131 35.5933 123.457 35.2467 123.631 34.82L125.931 35.46C125.544 36.26 124.924 36.92 124.071 37.44C123.231 37.9467 122.224 38.2 121.051 38.2ZM123.771 31.88C123.704 31.0933 123.411 30.4667 122.891 30C122.384 29.52 121.764 29.28 121.031 29.28C120.671 29.28 120.331 29.3467 120.011 29.48C119.704 29.6 119.431 29.7733 119.191 30C118.951 30.2267 118.751 30.5 118.591 30.82C118.444 31.14 118.357 31.4933 118.331 31.88H123.771ZM134.403 29.84C133.59 29.8533 132.863 30.0133 132.223 30.32C131.583 30.6133 131.123 31.06 130.843 31.66V38H128.163V27.52H130.623V29.76C130.81 29.4 131.03 29.08 131.283 28.8C131.537 28.5067 131.81 28.2533 132.103 28.04C132.397 27.8267 132.69 27.6667 132.983 27.56C133.29 27.44 133.583 27.38 133.863 27.38C134.01 27.38 134.117 27.38 134.183 27.38C134.263 27.38 134.337 27.3867 134.403 27.4V29.84ZM140.194 23.4H142.874V34.64C142.874 35.0267 142.967 35.3267 143.154 35.54C143.341 35.7533 143.607 35.86 143.954 35.86C144.114 35.86 144.287 35.8333 144.474 35.78C144.674 35.7267 144.861 35.66 145.034 35.58L145.394 37.62C145.034 37.7933 144.614 37.9267 144.134 38.02C143.654 38.1133 143.221 38.16 142.834 38.16C141.994 38.16 141.341 37.94 140.874 37.5C140.421 37.0467 140.194 36.4067 140.194 35.58V23.4ZM151.422 38.2C150.582 38.2 149.822 38.06 149.142 37.78C148.462 37.4867 147.882 37.0933 147.402 36.6C146.922 36.1067 146.548 35.5333 146.282 34.88C146.028 34.2267 145.902 33.54 145.902 32.82C145.902 32.0733 146.028 31.3733 146.282 30.72C146.535 30.0533 146.902 29.4733 147.382 28.98C147.862 28.4733 148.442 28.0733 149.122 27.78C149.815 27.4867 150.588 27.34 151.442 27.34C152.295 27.34 153.055 27.4867 153.722 27.78C154.402 28.0733 154.975 28.4667 155.442 28.96C155.922 29.4533 156.282 30.0267 156.522 30.68C156.775 31.3333 156.902 32.0133 156.902 32.72C156.902 32.8933 156.895 33.06 156.882 33.22C156.882 33.38 156.868 33.5133 156.842 33.62H148.742C148.782 34.0333 148.882 34.4 149.042 34.72C149.202 35.04 149.408 35.3133 149.662 35.54C149.915 35.7667 150.202 35.94 150.522 36.06C150.842 36.18 151.175 36.24 151.522 36.24C152.055 36.24 152.555 36.1133 153.022 35.86C153.502 35.5933 153.828 35.2467 154.002 34.82L156.302 35.46C155.915 36.26 155.295 36.92 154.442 37.44C153.602 37.9467 152.595 38.2 151.422 38.2ZM154.142 31.88C154.075 31.0933 153.782 30.4667 153.262 30C152.755 29.52 152.135 29.28 151.402 29.28C151.042 29.28 150.702 29.3467 150.382 29.48C150.075 29.6 149.802 29.7733 149.562 30C149.322 30.2267 149.122 30.5 148.962 30.82C148.815 31.14 148.728 31.4933 148.702 31.88H154.142ZM167.299 38.2C166.419 38.2 165.559 38.06 164.719 37.78C163.879 37.5 163.159 37.1 162.559 36.58L163.559 34.9C164.199 35.3533 164.819 35.7 165.419 35.94C166.032 36.1667 166.639 36.28 167.239 36.28C167.772 36.28 168.192 36.18 168.499 35.98C168.806 35.78 168.959 35.4933 168.959 35.12C168.959 34.7467 168.779 34.4733 168.419 34.3C168.059 34.1267 167.472 33.9267 166.659 33.7C165.979 33.5133 165.399 33.3333 164.919 33.16C164.439 32.9867 164.052 32.7933 163.759 32.58C163.466 32.3533 163.252 32.1 163.119 31.82C162.986 31.5267 162.919 31.18 162.919 30.78C162.919 30.2467 163.019 29.7667 163.219 29.34C163.432 28.9133 163.726 28.5533 164.099 28.26C164.472 27.9533 164.906 27.72 165.399 27.56C165.906 27.4 166.452 27.32 167.039 27.32C167.826 27.32 168.559 27.4333 169.239 27.66C169.932 27.8867 170.566 28.2533 171.139 28.76L170.059 30.38C169.526 29.98 169.006 29.6867 168.499 29.5C168.006 29.3133 167.512 29.22 167.019 29.22C166.566 29.22 166.186 29.3133 165.879 29.5C165.572 29.6867 165.419 29.9867 165.419 30.4C165.419 30.5867 165.452 30.74 165.519 30.86C165.599 30.98 165.719 31.0867 165.879 31.18C166.039 31.2733 166.246 31.3667 166.499 31.46C166.766 31.54 167.092 31.6267 167.479 31.72C168.199 31.9067 168.812 32.0933 169.319 32.28C169.839 32.4667 170.259 32.68 170.579 32.92C170.912 33.16 171.152 33.44 171.299 33.76C171.459 34.0667 171.539 34.44 171.539 34.88C171.539 35.9067 171.159 36.72 170.399 37.32C169.639 37.9067 168.606 38.2 167.299 38.2ZM172.621 32.76C172.621 32.0267 172.747 31.3333 173.001 30.68C173.254 30.0267 173.621 29.4533 174.101 28.96C174.581 28.4667 175.161 28.0733 175.841 27.78C176.521 27.4867 177.287 27.34 178.141 27.34C179.287 27.34 180.261 27.5867 181.061 28.08C181.874 28.5733 182.481 29.22 182.881 30.02L180.261 30.82C180.034 30.4333 179.734 30.14 179.361 29.94C178.987 29.7267 178.574 29.62 178.121 29.62C177.734 29.62 177.374 29.7 177.041 29.86C176.707 30.0067 176.414 30.22 176.161 30.5C175.921 30.7667 175.727 31.0933 175.581 31.48C175.447 31.8667 175.381 32.2933 175.381 32.76C175.381 33.2267 175.454 33.6533 175.601 34.04C175.747 34.4267 175.941 34.76 176.181 35.04C176.434 35.32 176.727 35.54 177.061 35.7C177.394 35.8467 177.747 35.92 178.121 35.92C178.601 35.92 179.041 35.8 179.441 35.56C179.854 35.32 180.141 35.0267 180.301 34.68L182.921 35.48C182.561 36.28 181.967 36.9333 181.141 37.44C180.314 37.9467 179.321 38.2 178.161 38.2C177.307 38.2 176.541 38.0533 175.861 37.76C175.181 37.4667 174.601 37.0733 174.121 36.58C173.641 36.0733 173.267 35.4933 173.001 34.84C172.747 34.1733 172.621 33.48 172.621 32.76ZM187.43 38.2C186.923 38.2 186.45 38.12 186.01 37.96C185.57 37.7867 185.19 37.5533 184.87 37.26C184.55 36.9533 184.296 36.6 184.11 36.2C183.936 35.8 183.85 35.36 183.85 34.88C183.85 34.3867 183.956 33.9333 184.17 33.52C184.396 33.0933 184.703 32.7333 185.09 32.44C185.49 32.1467 185.963 31.92 186.51 31.76C187.056 31.5867 187.656 31.5 188.31 31.5C188.776 31.5 189.23 31.54 189.67 31.62C190.123 31.7 190.523 31.8133 190.87 31.96V31.36C190.87 30.6667 190.67 30.1333 190.27 29.76C189.883 29.3867 189.303 29.2 188.53 29.2C187.97 29.2 187.423 29.3 186.89 29.5C186.356 29.7 185.81 29.9933 185.25 30.38L184.43 28.68C185.776 27.7867 187.23 27.34 188.79 27.34C190.296 27.34 191.463 27.7133 192.29 28.46C193.13 29.1933 193.55 30.26 193.55 31.66V34.92C193.55 35.2 193.596 35.4 193.69 35.52C193.796 35.64 193.963 35.7067 194.19 35.72V38C193.736 38.0933 193.343 38.14 193.01 38.14C192.503 38.14 192.11 38.0267 191.83 37.8C191.563 37.5733 191.396 37.2733 191.33 36.9L191.27 36.32C190.803 36.9333 190.236 37.4 189.57 37.72C188.903 38.04 188.19 38.2 187.43 38.2ZM188.19 36.24C188.643 36.24 189.07 36.16 189.47 36C189.883 35.84 190.203 35.6267 190.43 35.36C190.723 35.1333 190.87 34.88 190.87 34.6V33.4C190.55 33.28 190.203 33.1867 189.83 33.12C189.456 33.04 189.096 33 188.75 33C188.056 33 187.49 33.16 187.05 33.48C186.61 33.7867 186.39 34.18 186.39 34.66C186.39 35.1133 186.563 35.4933 186.91 35.8C187.256 36.0933 187.683 36.24 188.19 36.24ZM205.794 38H203.114V32.12C203.114 31.28 202.967 30.6667 202.674 30.28C202.381 29.8933 201.974 29.7 201.454 29.7C201.187 29.7 200.914 29.7533 200.634 29.86C200.354 29.9667 200.087 30.12 199.834 30.32C199.594 30.5067 199.374 30.7333 199.174 31C198.974 31.2667 198.827 31.56 198.734 31.88V38H196.054V27.52H198.474V29.46C198.861 28.7933 199.421 28.2733 200.154 27.9C200.887 27.5267 201.714 27.34 202.634 27.34C203.287 27.34 203.821 27.46 204.234 27.7C204.647 27.94 204.967 28.2533 205.194 28.64C205.421 29.0267 205.574 29.4667 205.654 29.96C205.747 30.4533 205.794 30.9533 205.794 31.46V38ZM217.864 38H215.184V32.12C215.184 31.28 215.038 30.6667 214.744 30.28C214.451 29.8933 214.044 29.7 213.524 29.7C213.258 29.7 212.984 29.7533 212.704 29.86C212.424 29.9667 212.158 30.12 211.904 30.32C211.664 30.5067 211.444 30.7333 211.244 31C211.044 31.2667 210.898 31.56 210.804 31.88V38H208.124V27.52H210.544V29.46C210.931 28.7933 211.491 28.2733 212.224 27.9C212.958 27.5267 213.784 27.34 214.704 27.34C215.358 27.34 215.891 27.46 216.304 27.7C216.718 27.94 217.038 28.2533 217.264 28.64C217.491 29.0267 217.644 29.4667 217.724 29.96C217.818 30.4533 217.864 30.9533 217.864 31.46V38ZM225.055 38.2C224.215 38.2 223.455 38.06 222.775 37.78C222.095 37.4867 221.515 37.0933 221.035 36.6C220.555 36.1067 220.181 35.5333 219.915 34.88C219.661 34.2267 219.535 33.54 219.535 32.82C219.535 32.0733 219.661 31.3733 219.915 30.72C220.168 30.0533 220.535 29.4733 221.015 28.98C221.495 28.4733 222.075 28.0733 222.755 27.78C223.448 27.4867 224.221 27.34 225.075 27.34C225.928 27.34 226.688 27.4867 227.355 27.78C228.035 28.0733 228.608 28.4667 229.075 28.96C229.555 29.4533 229.915 30.0267 230.155 30.68C230.408 31.3333 230.535 32.0133 230.535 32.72C230.535 32.8933 230.528 33.06 230.515 33.22C230.515 33.38 230.501 33.5133 230.475 33.62H222.375C222.415 34.0333 222.515 34.4 222.675 34.72C222.835 35.04 223.041 35.3133 223.295 35.54C223.548 35.7667 223.835 35.94 224.155 36.06C224.475 36.18 224.808 36.24 225.155 36.24C225.688 36.24 226.188 36.1133 226.655 35.86C227.135 35.5933 227.461 35.2467 227.635 34.82L229.935 35.46C229.548 36.26 228.928 36.92 228.075 37.44C227.235 37.9467 226.228 38.2 225.055 38.2ZM227.775 31.88C227.708 31.0933 227.415 30.4667 226.895 30C226.388 29.52 225.768 29.28 225.035 29.28C224.675 29.28 224.335 29.3467 224.015 29.48C223.708 29.6 223.435 29.7733 223.195 30C222.955 30.2267 222.755 30.5 222.595 30.82C222.448 31.14 222.361 31.4933 222.335 31.88H227.775ZM238.407 29.84C237.594 29.8533 236.867 30.0133 236.227 30.32C235.587 30.6133 235.127 31.06 234.847 31.66V38H232.167V27.52H234.627V29.76C234.814 29.4 235.034 29.08 235.287 28.8C235.541 28.5067 235.814 28.2533 236.107 28.04C236.401 27.8267 236.694 27.6667 236.987 27.56C237.294 27.44 237.587 27.38 237.867 27.38C238.014 27.38 238.121 27.38 238.187 27.38C238.267 27.38 238.341 27.3867 238.407 27.4V29.84Z" fill="white"/>
</svg>
