<svg width="174" height="60" viewBox="0 0 174 60" fill="none" xmlns="http://www.w3.org/2000/svg">
<rect width="174" height="60" rx="26" fill="#EA441D"/>
<path d="M31.5502 37.08C31.0302 37.4 30.4702 37.6533 29.8702 37.84C29.2702 38.0133 28.6302 38.1 27.9502 38.1C26.9102 38.1 25.9635 37.8933 25.1102 37.48C24.2702 37.0667 23.5435 36.5267 22.9302 35.86C22.3302 35.1933 21.8635 34.4267 21.5302 33.56C21.1968 32.6933 21.0302 31.8067 21.0302 30.9C21.0302 29.9533 21.2035 29.0467 21.5502 28.18C21.9102 27.3133 22.3968 26.5467 23.0102 25.88C23.6368 25.2133 24.3768 24.6867 25.2302 24.3C26.0835 23.9 27.0102 23.7 28.0102 23.7C29.0368 23.7 29.9702 23.9133 30.8102 24.34C31.6635 24.7533 32.3902 25.3 32.9902 25.98C33.5902 26.66 34.0568 27.4333 34.3902 28.3C34.7235 29.1667 34.8902 30.0467 34.8902 30.94C34.8902 31.86 34.7235 32.74 34.3902 33.58C34.0702 34.42 33.6168 35.1667 33.0302 35.82L34.9702 38H32.3702L31.5502 37.08ZM27.9702 35.66C28.3302 35.66 28.6635 35.62 28.9702 35.54C29.2902 35.4467 29.5835 35.3267 29.8502 35.18L27.6902 32.74H30.2902L31.2702 33.84C31.5368 33.4133 31.7435 32.9467 31.8902 32.44C32.0368 31.9333 32.1102 31.42 32.1102 30.9C32.1102 30.2867 32.0102 29.6933 31.8102 29.12C31.6235 28.5467 31.3502 28.04 30.9902 27.6C30.6435 27.16 30.2102 26.8067 29.6902 26.54C29.1835 26.2733 28.6102 26.14 27.9702 26.14C27.3035 26.14 26.7102 26.28 26.1902 26.56C25.6702 26.8267 25.2368 27.1867 24.8902 27.64C24.5435 28.0933 24.2768 28.6067 24.0902 29.18C23.9168 29.74 23.8302 30.3133 23.8302 30.9C23.8302 31.5133 23.9235 32.1067 24.1102 32.68C24.2968 33.2533 24.5635 33.76 24.9102 34.2C25.2702 34.64 25.7035 34.9933 26.2102 35.26C26.7302 35.5267 27.3168 35.66 27.9702 35.66ZM39.9278 38.2C38.8478 38.2 38.0278 37.8533 37.4678 37.16C36.9078 36.4667 36.6278 35.44 36.6278 34.08V27.52H39.3078V33.5C39.3078 35.1133 39.8878 35.92 41.0478 35.92C41.5678 35.92 42.0678 35.7667 42.5478 35.46C43.0411 35.14 43.4411 34.66 43.7478 34.02V27.52H46.4278V34.92C46.4278 35.2 46.4745 35.4 46.5678 35.52C46.6745 35.64 46.8411 35.7067 47.0678 35.72V38C46.8011 38.0533 46.5745 38.0867 46.3878 38.1C46.2145 38.1133 46.0545 38.12 45.9078 38.12C45.4278 38.12 45.0345 38.0133 44.7278 37.8C44.4345 37.5733 44.2611 37.2667 44.2078 36.88L44.1478 36.04C43.6811 36.76 43.0811 37.3 42.3478 37.66C41.6145 38.02 40.8078 38.2 39.9278 38.2ZM53.9511 38.2C53.1111 38.2 52.3511 38.06 51.6711 37.78C50.9911 37.4867 50.4111 37.0933 49.9311 36.6C49.4511 36.1067 49.0778 35.5333 48.8111 34.88C48.5578 34.2267 48.4311 33.54 48.4311 32.82C48.4311 32.0733 48.5578 31.3733 48.8111 30.72C49.0644 30.0533 49.4311 29.4733 49.9111 28.98C50.3911 28.4733 50.9711 28.0733 51.6511 27.78C52.3444 27.4867 53.1178 27.34 53.9711 27.34C54.8244 27.34 55.5844 27.4867 56.2511 27.78C56.9311 28.0733 57.5044 28.4667 57.9711 28.96C58.4511 29.4533 58.8111 30.0267 59.0511 30.68C59.3044 31.3333 59.4311 32.0133 59.4311 32.72C59.4311 32.8933 59.4244 33.06 59.4111 33.22C59.4111 33.38 59.3978 33.5133 59.3711 33.62H51.2711C51.3111 34.0333 51.4111 34.4 51.5711 34.72C51.7311 35.04 51.9378 35.3133 52.1911 35.54C52.4444 35.7667 52.7311 35.94 53.0511 36.06C53.3711 36.18 53.7044 36.24 54.0511 36.24C54.5844 36.24 55.0844 36.1133 55.5511 35.86C56.0311 35.5933 56.3578 35.2467 56.5311 34.82L58.8311 35.46C58.4444 36.26 57.8244 36.92 56.9711 37.44C56.1311 37.9467 55.1244 38.2 53.9511 38.2ZM56.6711 31.88C56.6044 31.0933 56.3111 30.4667 55.7911 30C55.2844 29.52 54.6644 29.28 53.9311 29.28C53.5711 29.28 53.2311 29.3467 52.9111 29.48C52.6044 29.6 52.3311 29.7733 52.0911 30C51.8511 30.2267 51.6511 30.5 51.4911 30.82C51.3444 31.14 51.2578 31.4933 51.2311 31.88H56.6711ZM65.0238 38.2C64.1438 38.2 63.2838 38.06 62.4438 37.78C61.6038 37.5 60.8838 37.1 60.2838 36.58L61.2838 34.9C61.9238 35.3533 62.5438 35.7 63.1438 35.94C63.7571 36.1667 64.3638 36.28 64.9638 36.28C65.4971 36.28 65.9171 36.18 66.2238 35.98C66.5304 35.78 66.6838 35.4933 66.6838 35.12C66.6838 34.7467 66.5038 34.4733 66.1438 34.3C65.7838 34.1267 65.1971 33.9267 64.3838 33.7C63.7038 33.5133 63.1238 33.3333 62.6438 33.16C62.1638 32.9867 61.7771 32.7933 61.4838 32.58C61.1904 32.3533 60.9771 32.1 60.8438 31.82C60.7104 31.5267 60.6438 31.18 60.6438 30.78C60.6438 30.2467 60.7438 29.7667 60.9438 29.34C61.1571 28.9133 61.4504 28.5533 61.8238 28.26C62.1971 27.9533 62.6304 27.72 63.1238 27.56C63.6304 27.4 64.1771 27.32 64.7638 27.32C65.5504 27.32 66.2838 27.4333 66.9638 27.66C67.6571 27.8867 68.2904 28.2533 68.8638 28.76L67.7838 30.38C67.2504 29.98 66.7304 29.6867 66.2238 29.5C65.7304 29.3133 65.2371 29.22 64.7438 29.22C64.2904 29.22 63.9104 29.3133 63.6038 29.5C63.2971 29.6867 63.1438 29.9867 63.1438 30.4C63.1438 30.5867 63.1771 30.74 63.2438 30.86C63.3238 30.98 63.4438 31.0867 63.6038 31.18C63.7638 31.2733 63.9704 31.3667 64.2238 31.46C64.4904 31.54 64.8171 31.6267 65.2038 31.72C65.9238 31.9067 66.5371 32.0933 67.0438 32.28C67.5638 32.4667 67.9838 32.68 68.3038 32.92C68.6371 33.16 68.8771 33.44 69.0238 33.76C69.1838 34.0667 69.2638 34.44 69.2638 34.88C69.2638 35.9067 68.8838 36.72 68.1238 37.32C67.3638 37.9067 66.3304 38.2 65.0238 38.2ZM77.2852 37.46C76.9252 37.62 76.4852 37.78 75.9652 37.94C75.4452 38.1 74.8985 38.18 74.3252 38.18C73.9518 38.18 73.5985 38.1333 73.2652 38.04C72.9452 37.9467 72.6585 37.8 72.4052 37.6C72.1652 37.3867 71.9718 37.12 71.8252 36.8C71.6785 36.4667 71.6052 36.0667 71.6052 35.6V29.58H70.2252V27.52H71.6052V24.12H74.2852V27.52H76.4852V29.58H74.2852V34.7C74.2852 35.0733 74.3785 35.34 74.5652 35.5C74.7652 35.6467 75.0052 35.72 75.2852 35.72C75.5652 35.72 75.8385 35.6733 76.1052 35.58C76.3718 35.4867 76.5852 35.4067 76.7452 35.34L77.2852 37.46ZM78.6809 38V27.52H81.3609V38H78.6809ZM78.6809 26.06V23.4H81.3609V26.06H78.6809ZM88.6186 38.2C87.7653 38.2 86.9986 38.0533 86.3186 37.76C85.6386 37.4667 85.0586 37.0733 84.5786 36.58C84.1119 36.0733 83.7519 35.4933 83.4986 34.84C83.2453 34.1867 83.1186 33.5 83.1186 32.78C83.1186 32.0467 83.2453 31.3533 83.4986 30.7C83.7519 30.0467 84.1119 29.4733 84.5786 28.98C85.0586 28.4733 85.6386 28.0733 86.3186 27.78C86.9986 27.4867 87.7653 27.34 88.6186 27.34C89.4719 27.34 90.2319 27.4867 90.8986 27.78C91.5786 28.0733 92.1519 28.4733 92.6186 28.98C93.0986 29.4733 93.4653 30.0467 93.7186 30.7C93.9719 31.3533 94.0986 32.0467 94.0986 32.78C94.0986 33.5 93.9719 34.1867 93.7186 34.84C93.4653 35.4933 93.1053 36.0733 92.6386 36.58C92.1719 37.0733 91.5986 37.4667 90.9186 37.76C90.2386 38.0533 89.4719 38.2 88.6186 38.2ZM85.8786 32.78C85.8786 33.2467 85.9453 33.6733 86.0786 34.06C86.2253 34.4333 86.4186 34.76 86.6586 35.04C86.9119 35.32 87.2053 35.54 87.5386 35.7C87.8719 35.8467 88.2319 35.92 88.6186 35.92C89.0053 35.92 89.3653 35.8467 89.6986 35.7C90.0319 35.54 90.3186 35.32 90.5586 35.04C90.8119 34.76 91.0053 34.4267 91.1386 34.04C91.2853 33.6533 91.3586 33.2267 91.3586 32.76C91.3586 32.3067 91.2853 31.8867 91.1386 31.5C91.0053 31.1133 90.8119 30.78 90.5586 30.5C90.3186 30.22 90.0319 30.0067 89.6986 29.86C89.3653 29.7 89.0053 29.62 88.6186 29.62C88.2319 29.62 87.8719 29.7 87.5386 29.86C87.2053 30.02 86.9119 30.24 86.6586 30.52C86.4186 30.8 86.2253 31.1333 86.0786 31.52C85.9453 31.9067 85.8786 32.3267 85.8786 32.78ZM105.648 38H102.968V32.12C102.968 31.28 102.821 30.6667 102.528 30.28C102.234 29.8933 101.828 29.7 101.308 29.7C101.041 29.7 100.768 29.7533 100.488 29.86C100.208 29.9667 99.9408 30.12 99.6875 30.32C99.4475 30.5067 99.2275 30.7333 99.0275 31C98.8275 31.2667 98.6808 31.56 98.5875 31.88V38H95.9075V27.52H98.3275V29.46C98.7142 28.7933 99.2742 28.2733 100.008 27.9C100.741 27.5267 101.568 27.34 102.488 27.34C103.141 27.34 103.674 27.46 104.088 27.7C104.501 27.94 104.821 28.2533 105.048 28.64C105.274 29.0267 105.428 29.4667 105.508 29.96C105.601 30.4533 105.648 30.9533 105.648 31.46V38ZM117.718 38H115.038V32.12C115.038 31.28 114.891 30.6667 114.598 30.28C114.304 29.8933 113.898 29.7 113.378 29.7C113.111 29.7 112.838 29.7533 112.558 29.86C112.278 29.9667 112.011 30.12 111.758 30.32C111.518 30.5067 111.298 30.7333 111.098 31C110.898 31.2667 110.751 31.56 110.658 31.88V38H107.978V27.52H110.398V29.46C110.784 28.7933 111.344 28.2733 112.078 27.9C112.811 27.5267 113.638 27.34 114.558 27.34C115.211 27.34 115.744 27.46 116.158 27.7C116.571 27.94 116.891 28.2533 117.118 28.64C117.344 29.0267 117.498 29.4667 117.578 29.96C117.671 30.4533 117.718 30.9533 117.718 31.46V38ZM122.908 38.2C122.401 38.2 121.928 38.12 121.488 37.96C121.048 37.7867 120.668 37.5533 120.348 37.26C120.028 36.9533 119.775 36.6 119.588 36.2C119.415 35.8 119.328 35.36 119.328 34.88C119.328 34.3867 119.435 33.9333 119.648 33.52C119.875 33.0933 120.181 32.7333 120.568 32.44C120.968 32.1467 121.441 31.92 121.988 31.76C122.535 31.5867 123.135 31.5 123.788 31.5C124.255 31.5 124.708 31.54 125.148 31.62C125.601 31.7 126.001 31.8133 126.348 31.96V31.36C126.348 30.6667 126.148 30.1333 125.748 29.76C125.361 29.3867 124.781 29.2 124.008 29.2C123.448 29.2 122.901 29.3 122.368 29.5C121.835 29.7 121.288 29.9933 120.728 30.38L119.908 28.68C121.255 27.7867 122.708 27.34 124.268 27.34C125.775 27.34 126.941 27.7133 127.768 28.46C128.608 29.1933 129.028 30.26 129.028 31.66V34.92C129.028 35.2 129.075 35.4 129.168 35.52C129.275 35.64 129.441 35.7067 129.668 35.72V38C129.215 38.0933 128.821 38.14 128.488 38.14C127.981 38.14 127.588 38.0267 127.308 37.8C127.041 37.5733 126.875 37.2733 126.808 36.9L126.748 36.32C126.281 36.9333 125.715 37.4 125.048 37.72C124.381 38.04 123.668 38.2 122.908 38.2ZM123.668 36.24C124.121 36.24 124.548 36.16 124.948 36C125.361 35.84 125.681 35.6267 125.908 35.36C126.201 35.1333 126.348 34.88 126.348 34.6V33.4C126.028 33.28 125.681 33.1867 125.308 33.12C124.935 33.04 124.575 33 124.228 33C123.535 33 122.968 33.16 122.528 33.48C122.088 33.7867 121.868 34.18 121.868 34.66C121.868 35.1133 122.041 35.4933 122.388 35.8C122.735 36.0933 123.161 36.24 123.668 36.24ZM131.533 38V27.52H134.213V38H131.533ZM131.533 26.06V23.4H134.213V26.06H131.533ZM142.87 29.84C142.057 29.8533 141.33 30.0133 140.69 30.32C140.05 30.6133 139.59 31.06 139.31 31.66V38H136.63V27.52H139.09V29.76C139.277 29.4 139.497 29.08 139.75 28.8C140.003 28.5067 140.277 28.2533 140.57 28.04C140.863 27.8267 141.157 27.6667 141.45 27.56C141.757 27.44 142.05 27.38 142.33 27.38C142.477 27.38 142.583 27.38 142.65 27.38C142.73 27.38 142.803 27.3867 142.87 27.4V29.84ZM148.697 38.2C147.857 38.2 147.097 38.06 146.417 37.78C145.737 37.4867 145.157 37.0933 144.677 36.6C144.197 36.1067 143.824 35.5333 143.557 34.88C143.304 34.2267 143.177 33.54 143.177 32.82C143.177 32.0733 143.304 31.3733 143.557 30.72C143.811 30.0533 144.177 29.4733 144.657 28.98C145.137 28.4733 145.717 28.0733 146.397 27.78C147.091 27.4867 147.864 27.34 148.717 27.34C149.571 27.34 150.331 27.4867 150.997 27.78C151.677 28.0733 152.251 28.4667 152.717 28.96C153.197 29.4533 153.557 30.0267 153.797 30.68C154.051 31.3333 154.177 32.0133 154.177 32.72C154.177 32.8933 154.171 33.06 154.157 33.22C154.157 33.38 154.144 33.5133 154.117 33.62H146.017C146.057 34.0333 146.157 34.4 146.317 34.72C146.477 35.04 146.684 35.3133 146.937 35.54C147.191 35.7667 147.477 35.94 147.797 36.06C148.117 36.18 148.451 36.24 148.797 36.24C149.331 36.24 149.831 36.1133 150.297 35.86C150.777 35.5933 151.104 35.2467 151.277 34.82L153.577 35.46C153.191 36.26 152.571 36.92 151.717 37.44C150.877 37.9467 149.871 38.2 148.697 38.2ZM151.417 31.88C151.351 31.0933 151.057 30.4667 150.537 30C150.031 29.52 149.411 29.28 148.677 29.28C148.317 29.28 147.977 29.3467 147.657 29.48C147.351 29.6 147.077 29.7733 146.837 30C146.597 30.2267 146.397 30.5 146.237 30.82C146.091 31.14 146.004 31.4933 145.977 31.88H151.417Z" fill="white"/>
</svg>
