<svg width="301" height="60" viewBox="0 0 301 60" fill="none" xmlns="http://www.w3.org/2000/svg">
<rect width="301" height="60" rx="26" fill="#EA441D"/>
<path d="M44.8161 32.7467C44.8161 38.87 39.6209 43.9067 33.1207 43.9067C26.6205 43.9067 21.4253 38.87 21.4253 32.7467C21.4253 26.6233 26.6205 21.5867 33.1207 21.5867C39.6209 21.5867 44.8161 26.6233 44.8161 32.7467Z" stroke="white" stroke-width="2"/>
<path d="M33.1207 17.5466V48.4533" stroke="white" stroke-width="2"/>
<path d="M33.1207 17.5466V48.4533" stroke="white" stroke-width="2"/>
<path d="M33.1207 17.5466V48.4533" stroke="white" stroke-width="2"/>
<line x1="17.7242" y1="32.2533" x2="48.5173" y2="32.2533" stroke="white" stroke-width="2"/>
<path d="M52.3793 33C52.3793 42.8697 43.7103 51 32.8506 51C21.9909 51 13.3218 42.8697 13.3218 33C13.3218 23.1303 21.9909 15 32.8506 15C43.7103 15 52.3793 23.1303 52.3793 33Z" stroke="white" stroke-width="2"/>
<rect x="40.954" y="14" width="14.046" height="8.10667" fill="#EA441D"/>
<rect x="8" y="40.8533" width="14.046" height="8.10667" fill="#EA441D"/>
<path d="M278.816 28.7467C278.816 34.87 273.621 39.9067 267.121 39.9067C260.62 39.9067 255.425 34.87 255.425 28.7467C255.425 22.6233 260.62 17.5867 267.121 17.5867C273.621 17.5867 278.816 22.6233 278.816 28.7467Z" stroke="white" stroke-width="2"/>
<path d="M267.121 13.5466V44.4533" stroke="white" stroke-width="2"/>
<path d="M267.121 13.5466V44.4533" stroke="white" stroke-width="2"/>
<path d="M267.121 13.5466V44.4533" stroke="white" stroke-width="2"/>
<line x1="251.724" y1="28.2534" x2="282.517" y2="28.2534" stroke="white" stroke-width="2"/>
<path d="M286.379 29C286.379 38.8697 277.71 47 266.851 47C255.991 47 247.322 38.8697 247.322 29C247.322 19.1303 255.991 11 266.851 11C277.71 11 286.379 19.1303 286.379 29Z" stroke="white" stroke-width="2"/>
<rect x="274.954" y="10" width="14.046" height="8.10667" fill="#EA441D"/>
<rect x="242" y="36.8533" width="14.046" height="8.10667" fill="#EA441D"/>
<path d="M98.381 25.58V28H88.521V13.8H98.201V16.22H91.281V19.64H97.261V21.88H91.281V25.58H98.381ZM104.116 28.2C103.236 28.2 102.376 28.06 101.536 27.78C100.696 27.5 99.9755 27.1 99.3755 26.58L100.376 24.9C101.016 25.3533 101.636 25.7 102.236 25.94C102.849 26.1667 103.456 26.28 104.056 26.28C104.589 26.28 105.009 26.18 105.316 25.98C105.622 25.78 105.776 25.4933 105.776 25.12C105.776 24.7467 105.596 24.4733 105.236 24.3C104.876 24.1267 104.289 23.9267 103.476 23.7C102.796 23.5133 102.216 23.3333 101.736 23.16C101.256 22.9867 100.869 22.7933 100.576 22.58C100.282 22.3533 100.069 22.1 99.9355 21.82C99.8022 21.5267 99.7355 21.18 99.7355 20.78C99.7355 20.2467 99.8355 19.7667 100.036 19.34C100.249 18.9133 100.542 18.5533 100.916 18.26C101.289 17.9533 101.722 17.72 102.216 17.56C102.722 17.4 103.269 17.32 103.856 17.32C104.642 17.32 105.376 17.4333 106.056 17.66C106.749 17.8867 107.382 18.2533 107.956 18.76L106.876 20.38C106.342 19.98 105.822 19.6867 105.316 19.5C104.822 19.3133 104.329 19.22 103.836 19.22C103.382 19.22 103.002 19.3133 102.696 19.5C102.389 19.6867 102.236 19.9867 102.236 20.4C102.236 20.5867 102.269 20.74 102.336 20.86C102.416 20.98 102.536 21.0867 102.696 21.18C102.856 21.2733 103.062 21.3667 103.316 21.46C103.582 21.54 103.909 21.6267 104.296 21.72C105.016 21.9067 105.629 22.0933 106.136 22.28C106.656 22.4667 107.076 22.68 107.396 22.92C107.729 23.16 107.969 23.44 108.116 23.76C108.276 24.0667 108.356 24.44 108.356 24.88C108.356 25.9067 107.976 26.72 107.216 27.32C106.456 27.9067 105.422 28.2 104.116 28.2ZM114.057 28.2C113.177 28.2 112.317 28.06 111.477 27.78C110.637 27.5 109.917 27.1 109.317 26.58L110.317 24.9C110.957 25.3533 111.577 25.7 112.177 25.94C112.79 26.1667 113.397 26.28 113.997 26.28C114.53 26.28 114.95 26.18 115.257 25.98C115.564 25.78 115.717 25.4933 115.717 25.12C115.717 24.7467 115.537 24.4733 115.177 24.3C114.817 24.1267 114.23 23.9267 113.417 23.7C112.737 23.5133 112.157 23.3333 111.677 23.16C111.197 22.9867 110.81 22.7933 110.517 22.58C110.224 22.3533 110.01 22.1 109.877 21.82C109.744 21.5267 109.677 21.18 109.677 20.78C109.677 20.2467 109.777 19.7667 109.977 19.34C110.19 18.9133 110.484 18.5533 110.857 18.26C111.23 17.9533 111.664 17.72 112.157 17.56C112.664 17.4 113.21 17.32 113.797 17.32C114.584 17.32 115.317 17.4333 115.997 17.66C116.69 17.8867 117.324 18.2533 117.897 18.76L116.817 20.38C116.284 19.98 115.764 19.6867 115.257 19.5C114.764 19.3133 114.27 19.22 113.777 19.22C113.324 19.22 112.944 19.3133 112.637 19.5C112.33 19.6867 112.177 19.9867 112.177 20.4C112.177 20.5867 112.21 20.74 112.277 20.86C112.357 20.98 112.477 21.0867 112.637 21.18C112.797 21.2733 113.004 21.3667 113.257 21.46C113.524 21.54 113.85 21.6267 114.237 21.72C114.957 21.9067 115.57 22.0933 116.077 22.28C116.597 22.4667 117.017 22.68 117.337 22.92C117.67 23.16 117.91 23.44 118.057 23.76C118.217 24.0667 118.297 24.44 118.297 24.88C118.297 25.9067 117.917 26.72 117.157 27.32C116.397 27.9067 115.364 28.2 114.057 28.2ZM122.898 28.2C122.392 28.2 121.918 28.12 121.478 27.96C121.038 27.7867 120.658 27.5533 120.338 27.26C120.018 26.9533 119.765 26.6 119.578 26.2C119.405 25.8 119.318 25.36 119.318 24.88C119.318 24.3867 119.425 23.9333 119.638 23.52C119.865 23.0933 120.172 22.7333 120.558 22.44C120.958 22.1467 121.432 21.92 121.978 21.76C122.525 21.5867 123.125 21.5 123.778 21.5C124.245 21.5 124.698 21.54 125.138 21.62C125.592 21.7 125.992 21.8133 126.338 21.96V21.36C126.338 20.6667 126.138 20.1333 125.738 19.76C125.352 19.3867 124.772 19.2 123.998 19.2C123.438 19.2 122.892 19.3 122.358 19.5C121.825 19.7 121.278 19.9933 120.718 20.38L119.898 18.68C121.245 17.7867 122.698 17.34 124.258 17.34C125.765 17.34 126.932 17.7133 127.758 18.46C128.598 19.1933 129.018 20.26 129.018 21.66V24.92C129.018 25.2 129.065 25.4 129.158 25.52C129.265 25.64 129.432 25.7067 129.658 25.72V28C129.205 28.0933 128.812 28.14 128.478 28.14C127.972 28.14 127.578 28.0267 127.298 27.8C127.032 27.5733 126.865 27.2733 126.798 26.9L126.738 26.32C126.272 26.9333 125.705 27.4 125.038 27.72C124.372 28.04 123.658 28.2 122.898 28.2ZM123.658 26.24C124.112 26.24 124.538 26.16 124.938 26C125.352 25.84 125.672 25.6267 125.898 25.36C126.192 25.1333 126.338 24.88 126.338 24.6V23.4C126.018 23.28 125.672 23.1867 125.298 23.12C124.925 23.04 124.565 23 124.218 23C123.525 23 122.958 23.16 122.518 23.48C122.078 23.7867 121.858 24.18 121.858 24.66C121.858 25.1133 122.032 25.4933 122.378 25.8C122.725 26.0933 123.152 26.24 123.658 26.24ZM131.489 30.04C131.715 30.1067 131.935 30.1533 132.149 30.18C132.362 30.22 132.542 30.24 132.689 30.24C132.862 30.24 133.022 30.2067 133.169 30.14C133.315 30.0733 133.449 29.9533 133.569 29.78C133.689 29.62 133.809 29.3933 133.929 29.1C134.049 28.8067 134.175 28.44 134.309 28L130.169 17.52H132.929L135.769 25.68L138.289 17.52H140.809L136.409 30.08C136.155 30.8133 135.722 31.4133 135.109 31.88C134.495 32.3467 133.735 32.58 132.829 32.58C132.615 32.58 132.395 32.56 132.169 32.52C131.955 32.4933 131.729 32.44 131.489 32.36V30.04ZM146.773 28.2C145.933 28.2 145.173 28.06 144.493 27.78C143.813 27.4867 143.233 27.0933 142.753 26.6C142.273 26.1067 141.9 25.5333 141.633 24.88C141.38 24.2267 141.253 23.54 141.253 22.82C141.253 22.0733 141.38 21.3733 141.633 20.72C141.887 20.0533 142.253 19.4733 142.733 18.98C143.213 18.4733 143.793 18.0733 144.473 17.78C145.167 17.4867 145.94 17.34 146.793 17.34C147.647 17.34 148.407 17.4867 149.073 17.78C149.753 18.0733 150.327 18.4667 150.793 18.96C151.273 19.4533 151.633 20.0267 151.873 20.68C152.127 21.3333 152.253 22.0133 152.253 22.72C152.253 22.8933 152.247 23.06 152.233 23.22C152.233 23.38 152.22 23.5133 152.193 23.62H144.093C144.133 24.0333 144.233 24.4 144.393 24.72C144.553 25.04 144.76 25.3133 145.013 25.54C145.267 25.7667 145.553 25.94 145.873 26.06C146.193 26.18 146.527 26.24 146.873 26.24C147.407 26.24 147.907 26.1133 148.373 25.86C148.853 25.5933 149.18 25.2467 149.353 24.82L151.653 25.46C151.267 26.26 150.647 26.92 149.793 27.44C148.953 27.9467 147.947 28.2 146.773 28.2ZM149.493 21.88C149.427 21.0933 149.133 20.4667 148.613 20C148.107 19.52 147.487 19.28 146.753 19.28C146.393 19.28 146.053 19.3467 145.733 19.48C145.427 19.6 145.153 19.7733 144.913 20C144.673 20.2267 144.473 20.5 144.313 20.82C144.167 21.14 144.08 21.4933 144.053 21.88H149.493ZM160.126 19.84C159.313 19.8533 158.586 20.0133 157.946 20.32C157.306 20.6133 156.846 21.06 156.566 21.66V28H153.886V17.52H156.346V19.76C156.533 19.4 156.753 19.08 157.006 18.8C157.259 18.5067 157.533 18.2533 157.826 18.04C158.119 17.8267 158.413 17.6667 158.706 17.56C159.013 17.44 159.306 17.38 159.586 17.38C159.733 17.38 159.839 17.38 159.906 17.38C159.986 17.38 160.059 17.3867 160.126 17.4V19.84ZM165.917 13.4H168.597V24.64C168.597 25.0267 168.69 25.3267 168.877 25.54C169.063 25.7533 169.33 25.86 169.677 25.86C169.837 25.86 170.01 25.8333 170.197 25.78C170.397 25.7267 170.583 25.66 170.757 25.58L171.117 27.62C170.757 27.7933 170.337 27.9267 169.857 28.02C169.377 28.1133 168.943 28.16 168.557 28.16C167.717 28.16 167.063 27.94 166.597 27.5C166.143 27.0467 165.917 26.4067 165.917 25.58V13.4ZM172.25 18.42L172.69 15.98H171.89V13.28H174.59V16.02L173.87 18.42H172.25ZM179.69 13.8H182.13L187.53 28H184.69L183.37 24.46H178.41L177.11 28H174.27L179.69 13.8ZM182.87 22.52L180.91 16.94L178.87 22.52H182.87ZM195.107 28.2C194.281 28.2 193.561 28.02 192.947 27.66C192.334 27.2867 191.854 26.7867 191.507 26.16V32.26H188.827V17.52H191.167V19.32C191.554 18.7067 192.054 18.2267 192.667 17.88C193.281 17.52 193.987 17.34 194.787 17.34C195.494 17.34 196.147 17.4867 196.747 17.78C197.347 18.06 197.861 18.4467 198.287 18.94C198.727 19.42 199.067 19.9933 199.307 20.66C199.561 21.3133 199.687 22.0067 199.687 22.74C199.687 23.5 199.574 24.2133 199.347 24.88C199.121 25.5467 198.801 26.1267 198.387 26.62C197.987 27.1133 197.507 27.5 196.947 27.78C196.387 28.06 195.774 28.2 195.107 28.2ZM194.207 25.92C194.607 25.92 194.974 25.8333 195.307 25.66C195.654 25.4867 195.947 25.2533 196.187 24.96C196.427 24.6667 196.614 24.3267 196.747 23.94C196.881 23.5533 196.947 23.1533 196.947 22.74C196.947 22.3 196.874 21.8933 196.727 21.52C196.581 21.1333 196.374 20.8 196.107 20.52C195.854 20.24 195.547 20.02 195.187 19.86C194.841 19.7 194.461 19.62 194.047 19.62C193.794 19.62 193.534 19.6667 193.267 19.76C193.001 19.84 192.754 19.96 192.527 20.12C192.301 20.28 192.094 20.4667 191.907 20.68C191.734 20.8933 191.601 21.1267 191.507 21.38V23.84C191.747 24.44 192.114 24.94 192.607 25.34C193.101 25.7267 193.634 25.92 194.207 25.92ZM207.783 28.2C206.957 28.2 206.237 28.02 205.623 27.66C205.01 27.2867 204.53 26.7867 204.183 26.16V32.26H201.503V17.52H203.843V19.32C204.23 18.7067 204.73 18.2267 205.343 17.88C205.957 17.52 206.663 17.34 207.463 17.34C208.17 17.34 208.823 17.4867 209.423 17.78C210.023 18.06 210.537 18.4467 210.963 18.94C211.403 19.42 211.743 19.9933 211.983 20.66C212.237 21.3133 212.363 22.0067 212.363 22.74C212.363 23.5 212.25 24.2133 212.023 24.88C211.797 25.5467 211.477 26.1267 211.063 26.62C210.663 27.1133 210.183 27.5 209.623 27.78C209.063 28.06 208.45 28.2 207.783 28.2ZM206.883 25.92C207.283 25.92 207.65 25.8333 207.983 25.66C208.33 25.4867 208.623 25.2533 208.863 24.96C209.103 24.6667 209.29 24.3267 209.423 23.94C209.557 23.5533 209.623 23.1533 209.623 22.74C209.623 22.3 209.55 21.8933 209.403 21.52C209.257 21.1333 209.05 20.8 208.783 20.52C208.53 20.24 208.223 20.02 207.863 19.86C207.517 19.7 207.137 19.62 206.723 19.62C206.47 19.62 206.21 19.6667 205.943 19.76C205.677 19.84 205.43 19.96 205.203 20.12C204.977 20.28 204.77 20.4667 204.583 20.68C204.41 20.8933 204.277 21.1267 204.183 21.38V23.84C204.423 24.44 204.79 24.94 205.283 25.34C205.777 25.7267 206.31 25.92 206.883 25.92ZM134.387 48.58V51H124.527V36.8H134.207V39.22H127.287V42.64H133.267V44.88H127.287V48.58H134.387ZM142.285 50.46C141.925 50.62 141.485 50.78 140.965 50.94C140.445 51.1 139.898 51.18 139.325 51.18C138.952 51.18 138.598 51.1333 138.265 51.04C137.945 50.9467 137.658 50.8 137.405 50.6C137.165 50.3867 136.972 50.12 136.825 49.8C136.678 49.4667 136.605 49.0667 136.605 48.6V42.58H135.225V40.52H136.605V37.12H139.285V40.52H141.485V42.58H139.285V47.7C139.285 48.0733 139.378 48.34 139.565 48.5C139.765 48.6467 140.005 48.72 140.285 48.72C140.565 48.72 140.838 48.6733 141.105 48.58C141.372 48.4867 141.585 48.4067 141.745 48.34L142.285 50.46ZM148.267 51.2C147.414 51.2 146.647 51.0533 145.967 50.76C145.287 50.4667 144.707 50.0733 144.227 49.58C143.76 49.0733 143.4 48.4933 143.147 47.84C142.894 47.1867 142.767 46.5 142.767 45.78C142.767 45.0467 142.894 44.3533 143.147 43.7C143.4 43.0467 143.76 42.4733 144.227 41.98C144.707 41.4733 145.287 41.0733 145.967 40.78C146.647 40.4867 147.414 40.34 148.267 40.34C149.12 40.34 149.88 40.4867 150.547 40.78C151.227 41.0733 151.8 41.4733 152.267 41.98C152.747 42.4733 153.114 43.0467 153.367 43.7C153.62 44.3533 153.747 45.0467 153.747 45.78C153.747 46.5 153.62 47.1867 153.367 47.84C153.114 48.4933 152.754 49.0733 152.287 49.58C151.82 50.0733 151.247 50.4667 150.567 50.76C149.887 51.0533 149.12 51.2 148.267 51.2ZM145.527 45.78C145.527 46.2467 145.594 46.6733 145.727 47.06C145.874 47.4333 146.067 47.76 146.307 48.04C146.56 48.32 146.854 48.54 147.187 48.7C147.52 48.8467 147.88 48.92 148.267 48.92C148.654 48.92 149.014 48.8467 149.347 48.7C149.68 48.54 149.967 48.32 150.207 48.04C150.46 47.76 150.654 47.4267 150.787 47.04C150.934 46.6533 151.007 46.2267 151.007 45.76C151.007 45.3067 150.934 44.8867 150.787 44.5C150.654 44.1133 150.46 43.78 150.207 43.5C149.967 43.22 149.68 43.0067 149.347 42.86C149.014 42.7 148.654 42.62 148.267 42.62C147.88 42.62 147.52 42.7 147.187 42.86C146.854 43.02 146.56 43.24 146.307 43.52C146.067 43.8 145.874 44.1333 145.727 44.52C145.594 44.9067 145.527 45.3267 145.527 45.78ZM159.656 51.06C158.949 51.06 158.309 50.92 157.736 50.64C157.163 50.36 156.663 49.98 156.236 49.5C155.823 49.0067 155.503 48.44 155.276 47.8C155.049 47.16 154.936 46.48 154.936 45.76C154.936 45 155.056 44.2933 155.296 43.64C155.536 42.9867 155.869 42.4133 156.296 41.92C156.723 41.4267 157.236 41.04 157.836 40.76C158.436 40.48 159.096 40.34 159.816 40.34C160.629 40.34 161.343 40.5267 161.956 40.9C162.569 41.26 163.076 41.7467 163.476 42.36V40.52H165.816V50.5C165.816 51.2733 165.669 51.9667 165.376 52.58C165.083 53.1933 164.676 53.7133 164.156 54.14C163.649 54.5667 163.036 54.8933 162.316 55.12C161.609 55.3467 160.836 55.46 159.996 55.46C158.849 55.46 157.883 55.2667 157.096 54.88C156.323 54.5067 155.656 53.9733 155.096 53.28L156.556 51.86C156.956 52.3533 157.456 52.74 158.056 53.02C158.669 53.3 159.316 53.44 159.996 53.44C160.409 53.44 160.803 53.38 161.176 53.26C161.563 53.1533 161.903 52.98 162.196 52.74C162.489 52.5 162.716 52.1933 162.876 51.82C163.049 51.4467 163.136 51.0067 163.136 50.5V49.18C162.789 49.78 162.303 50.2467 161.676 50.58C161.049 50.9 160.376 51.06 159.656 51.06ZM160.556 48.92C160.849 48.92 161.129 48.8733 161.396 48.78C161.663 48.6867 161.909 48.56 162.136 48.4C162.363 48.24 162.563 48.0533 162.736 47.84C162.909 47.6267 163.043 47.4 163.136 47.16V44.66C162.896 44.0467 162.516 43.5533 161.996 43.18C161.489 42.8067 160.956 42.62 160.396 42.62C159.983 42.62 159.609 42.7133 159.276 42.9C158.943 43.0733 158.656 43.3133 158.416 43.62C158.176 43.9133 157.989 44.2533 157.856 44.64C157.736 45.0267 157.676 45.4267 157.676 45.84C157.676 46.2667 157.749 46.6667 157.896 47.04C158.043 47.4133 158.243 47.74 158.496 48.02C158.763 48.3 159.069 48.52 159.416 48.68C159.763 48.84 160.143 48.92 160.556 48.92ZM172.192 51.2C171.312 51.2 170.452 51.06 169.612 50.78C168.772 50.5 168.052 50.1 167.452 49.58L168.452 47.9C169.092 48.3533 169.712 48.7 170.312 48.94C170.925 49.1667 171.532 49.28 172.132 49.28C172.665 49.28 173.085 49.18 173.392 48.98C173.698 48.78 173.852 48.4933 173.852 48.12C173.852 47.7467 173.672 47.4733 173.312 47.3C172.952 47.1267 172.365 46.9267 171.552 46.7C170.872 46.5133 170.292 46.3333 169.812 46.16C169.332 45.9867 168.945 45.7933 168.652 45.58C168.358 45.3533 168.145 45.1 168.012 44.82C167.878 44.5267 167.812 44.18 167.812 43.78C167.812 43.2467 167.912 42.7667 168.112 42.34C168.325 41.9133 168.618 41.5533 168.992 41.26C169.365 40.9533 169.798 40.72 170.292 40.56C170.798 40.4 171.345 40.32 171.932 40.32C172.718 40.32 173.452 40.4333 174.132 40.66C174.825 40.8867 175.458 41.2533 176.032 41.76L174.952 43.38C174.418 42.98 173.898 42.6867 173.392 42.5C172.898 42.3133 172.405 42.22 171.912 42.22C171.458 42.22 171.078 42.3133 170.772 42.5C170.465 42.6867 170.312 42.9867 170.312 43.4C170.312 43.5867 170.345 43.74 170.412 43.86C170.492 43.98 170.612 44.0867 170.772 44.18C170.932 44.2733 171.138 44.3667 171.392 44.46C171.658 44.54 171.985 44.6267 172.372 44.72C173.092 44.9067 173.705 45.0933 174.212 45.28C174.732 45.4667 175.152 45.68 175.472 45.92C175.805 46.16 176.045 46.44 176.192 46.76C176.352 47.0667 176.432 47.44 176.432 47.88C176.432 48.9067 176.052 49.72 175.292 50.32C174.532 50.9067 173.498 51.2 172.192 51.2Z" fill="white"/>
</svg>
